<?xml version="1.0" encoding="utf-8"?>
<!-- Generator: Adobe Illustrator 27.2.0, SVG Export Plug-In . SVG Version: 6.00 Build 0)  -->
<svg version="1.1" id="Layer_1" xmlns="http://www.w3.org/2000/svg" xmlns:xlink="http://www.w3.org/1999/xlink" x="0px" y="0px"
	 viewBox="0 0 24 25" style="enable-background:new 0 0 24 25;" xml:space="preserve">
<style type="text/css">
	.st0{fill:#FFFFFF;}
</style>
<g id="Group_16411">
	<g id="Group">
		<g id="Vector">
			<path class="st0" d="M9.8,5.8c-0.2,0-0.4-0.1-0.5-0.2L7.9,4.2c-0.3-0.3-0.3-0.8,0-1.1s0.8-0.3,1.1,0l1.4,1.4
				c0.3,0.3,0.3,0.8,0,1.1C10.1,5.7,9.9,5.8,9.8,5.8z"/>
		</g>
		<g id="Vector_2">
			<path class="st0" d="M14.2,5.8c-0.2,0-0.4-0.1-0.5-0.2c-0.3-0.3-0.3-0.8,0-1.1l1.3-1.4c0.3-0.3,0.8-0.3,1.1,0
				c0.3,0.3,0.3,0.8,0,1.1l-1.3,1.4C14.6,5.7,14.4,5.8,14.2,5.8z"/>
		</g>
		<g id="Vector_3">
			<path class="st0" d="M16.4,19.7H7.6c-1,0-1.8-0.8-1.8-1.8v-8c0-0.4,0.3-0.8,0.8-0.8h10.8c0.4,0,0.8,0.3,0.8,0.8v8
				C18.2,18.9,17.4,19.7,16.4,19.7z M7.4,10.7V18c0,0.1,0.1,0.2,0.2,0.2h8.8c0.1,0,0.2-0.1,0.2-0.2v-7.3H7.4z"/>
		</g>
		<g id="Vector_4">
			<path class="st0" d="M17.4,10.7c-0.4,0-0.8-0.3-0.8-0.8c0-2.6-2.1-4.6-4.7-4.6c-2.6,0-4.6,2.1-4.6,4.6c0,0.4-0.3,0.8-0.8,0.8
				S5.9,10.4,5.9,10c0-3.4,2.8-6.1,6.1-6.1c3.4,0,6.2,2.8,6.2,6.1C18.2,10.4,17.8,10.7,17.4,10.7z"/>
		</g>
		<g id="Vector_5">
			<path class="st0" d="M20,16.2c-0.4,0-0.8-0.3-0.8-0.8V9.9c0-0.4,0.3-0.8,0.8-0.8s0.8,0.3,0.8,0.8v5.5
				C20.8,15.8,20.4,16.2,20,16.2z"/>
		</g>
		<g id="Vector_6">
			<path class="st0" d="M4,16.2c-0.4,0-0.8-0.3-0.8-0.8V9.9c0-0.4,0.3-0.8,0.8-0.8s0.8,0.3,0.8,0.8v5.5C4.8,15.8,4.4,16.2,4,16.2z"
				/>
		</g>
		<g id="Vector_7">
			<path class="st0" d="M9.3,22.4c-0.4,0-0.8-0.3-0.8-0.8V19c0-0.4,0.3-0.8,0.8-0.8S10,18.5,10,19v2.7C10,22.1,9.7,22.4,9.3,22.4z"
				/>
		</g>
		<g id="Vector_8">
			<path class="st0" d="M14.7,22.4c-0.4,0-0.8-0.3-0.8-0.8V19c0-0.4,0.3-0.8,0.8-0.8s0.8,0.3,0.8,0.8v2.7
				C15.5,22.1,15.1,22.4,14.7,22.4z"/>
		</g>
	</g>
</g>
</svg>
