<?xml version="1.0" encoding="utf-8"?>
<!-- Generator: Adobe Illustrator 27.2.0, SVG Export Plug-In . SVG Version: 6.00 Build 0)  -->
<svg version="1.1" id="Layer_1" xmlns="http://www.w3.org/2000/svg" xmlns:xlink="http://www.w3.org/1999/xlink" x="0px" y="0px"
	 viewBox="0 0 24 25" style="enable-background:new 0 0 24 25;" xml:space="preserve">
<style type="text/css">
	.st0{fill:#FFFFFF;}
</style>
<g id="Group_16410">
	<g id="Group">
		<g id="Vector">
			<path class="st0" d="M9.1,22.4c-1.5,0-2.5-1.5-3.2-2.4c-1.7-2.4-2.6-6.5-1.1-9.2c0.9-1.5,2.5-2.5,4.1-2.5c0.7,0,1.4,0.3,2,0.5
				c0.3,0.1,0.6,0.3,0.8,0.3c0.1,0,0.4-0.1,0.7-0.2c0.7-0.3,1.5-0.6,2.6-0.5c1.5,0.1,2.8,0.8,3.6,2c0.1,0.2,0.2,0.4,0.1,0.6
				c0,0.2-0.2,0.4-0.4,0.5c-0.1,0-1.4,0.8-1.4,2.5c0,2,1.7,2.6,1.7,2.7c0.4,0.1,0.6,0.5,0.5,0.9c0,0.1-0.4,1.3-1.3,2.6
				c-0.7,1-1.6,2.3-3.1,2.4c-0.7,0-1.2-0.2-1.6-0.4c-0.4-0.2-0.7-0.3-1.2-0.3c-0.5,0-0.9,0.1-1.2,0.3C10.2,22.2,9.7,22.4,9.1,22.4
				C9.1,22.4,9.1,22.4,9.1,22.4z M8.9,9.8c-1.1,0-2.2,0.7-2.8,1.8c-1.3,2.3-0.2,5.8,1,7.6c0.5,0.7,1.2,1.8,2,1.8c0,0,0,0,0,0
				c0.3,0,0.6-0.1,0.9-0.3c0.4-0.2,1-0.4,1.8-0.4c0.8,0,1.3,0.2,1.7,0.4c0.3,0.1,0.6,0.3,1,0.2c0.7,0,1.3-0.7,1.9-1.7
				c0.4-0.6,0.7-1.2,0.8-1.6c-0.8-0.5-2-1.6-2.1-3.7c0-1.6,0.8-2.7,1.5-3.3c-0.5-0.5-1.2-0.7-2-0.8c-0.7-0.1-1.3,0.2-1.9,0.4
				c-0.5,0.2-0.8,0.3-1.2,0.3c-0.4,0-0.9-0.2-1.3-0.4C9.8,10,9.3,9.8,8.9,9.8z"/>
		</g>
		<g id="Vector_2">
			<path class="st0" d="M12.5,7.8c-0.4,0-0.7-0.1-1-0.3c-0.4-0.4-0.6-1-0.5-1.7c0.2-1.2,1.2-2.4,2.4-2.8c0.7-0.3,1.3-0.2,1.8,0.2
				c0.4,0.4,0.6,1,0.5,1.7c-0.2,1.2-1.2,2.4-2.4,2.8C13,7.7,12.8,7.8,12.5,7.8z M14.2,4.2c0,0-0.1,0-0.3,0.1v0
				c-0.6,0.2-1.3,1-1.4,1.7c0,0.2,0,0.3,0,0.3c0,0,0.1,0,0.3-0.1c0.6-0.2,1.3-1,1.4-1.7C14.2,4.4,14.2,4.3,14.2,4.2z M13.7,3.6
				L13.7,3.6L13.7,3.6z"/>
		</g>
	</g>
</g>
</svg>
