<?xml version="1.0" encoding="utf-8"?>
<!-- Generator: Adobe Illustrator 27.2.0, SVG Export Plug-In . SVG Version: 6.00 Build 0)  -->
<svg version="1.1" id="Layer_1" xmlns="http://www.w3.org/2000/svg" xmlns:xlink="http://www.w3.org/1999/xlink" x="0px" y="0px"
	 viewBox="0 0 24 25" style="enable-background:new 0 0 24 25;" xml:space="preserve">
<style type="text/css">
	.st0{fill:#FFFFFF;}
</style>
<g id="Group_16420">
	<g id="Group">
		<g id="Vector">
			<path class="st0" d="M13.8,18.8l4.1-11c0.3-0.8-0.5-1.6-1.3-1.3l-11,4.1c-0.9,0.3-0.9,1.7,0.1,1.9l4.9,1.2l1.2,4.9
				C12.2,19.7,13.5,19.8,13.8,18.8z"/>
			<path class="st0" d="M12.9,20.2c0,0-0.1,0-0.1,0c-0.8,0-1.4-0.6-1.6-1.3l-1.1-4.5l-4.5-1.1c-0.8-0.2-1.3-0.8-1.3-1.6
				c0-0.8,0.4-1.5,1.1-1.7l11-4.1c0.6-0.2,1.4-0.1,1.8,0.4c0.5,0.5,0.6,1.2,0.4,1.8l-4.1,11l0,0C14.3,19.8,13.7,20.2,12.9,20.2z
				 M13.8,18.8L13.8,18.8L13.8,18.8z M17,7.3C16.9,7.3,16.9,7.3,17,7.3L5.9,11.4c-0.1,0.1-0.2,0.2-0.2,0.3c0,0.1,0,0.2,0.2,0.2
				l4.9,1.2c0.3,0.1,0.5,0.3,0.5,0.5l1.2,4.9c0,0.1,0.1,0.2,0.2,0.2c0.1,0,0.2,0,0.3-0.2l4.1-11c0-0.1,0-0.2-0.1-0.3
				C17.1,7.3,17.1,7.3,17,7.3z"/>
		</g>
	</g>
</g>
</svg>
