<?xml version="1.0" encoding="utf-8"?>
<!-- Generator: Adobe Illustrator 27.2.0, SVG Export Plug-In . SVG Version: 6.00 Build 0)  -->
<svg version="1.1" id="Layer_1" xmlns="http://www.w3.org/2000/svg" xmlns:xlink="http://www.w3.org/1999/xlink" x="0px" y="0px"
	 viewBox="0 0 24 24" style="enable-background:new 0 0 24 24;" xml:space="preserve">
<style type="text/css">
	.st0{fill:#A1AEB6;}
</style>
<g id="Group_16407">
	<g id="Group">
		<g id="Vector">
			<path class="st0" d="M15.6,15.1c-0.1,0-0.3,0-0.4-0.1c-0.3-0.2-0.4-0.7-0.2-1l0.3-0.4c1.3-2,3.8-2.8,6-2.1
				c0.4,0.1,0.6,0.6,0.5,0.9c-0.1,0.4-0.6,0.6-0.9,0.5c-1.6-0.5-3.4,0.1-4.3,1.5l-0.3,0.4C16.1,15,15.8,15.1,15.6,15.1z"/>
		</g>
		<g id="Vector_2">
			<path class="st0" d="M16.7,22.7c-0.3,0-0.5-0.2-0.7-0.4l-0.8-1.6C11.8,21.9,8,21.3,5,19.2l-1.5-1.1c-1-0.7-1.5-2.1-1.1-3.3L3,13
				c1.4-4.3,4.1-8.2,7.6-11.1c1-0.9,2.5-0.8,3.5,0.2l1.4,1.4c0.6,0.6,0.7,1.6,0.2,2.3l-1.1,1.7c-0.5,0.8-1.5,1-2.3,0.6l-0.4-0.2
				l-1,5c-0.1,0.4-0.5,0.7-0.9,0.6c-0.4-0.1-0.7-0.5-0.6-0.9l1.2-6c0-0.2,0.2-0.4,0.4-0.5c0.2-0.1,0.5-0.1,0.7,0l1.3,0.7
				c0.1,0.1,0.3,0,0.4-0.1L14.5,5c0.1-0.1,0.1-0.3,0-0.4L13,3.1c-0.4-0.4-1-0.4-1.4-0.1C8.2,5.8,5.8,9.4,4.4,13.5l-0.6,1.8
				c-0.2,0.6,0,1.2,0.5,1.6L5.9,18c2.8,2,6.3,2.4,9.4,1.1c0.4-0.1,0.8,0,0.9,0.4l1.1,2.2c0.2,0.4,0,0.8-0.3,1
				C16.9,22.7,16.8,22.7,16.7,22.7z"/>
		</g>
		<g id="Vector_3">
			<path class="st0" d="M15.6,14c-0.1,0-0.3,0-0.4-0.1c-1.7-1.1-3.9-1.1-5.7,0c-0.3,0.2-0.8,0.1-1-0.2c-0.2-0.3-0.1-0.8,0.2-1
				c2.2-1.5,5.1-1.5,7.3,0c0.3,0.2,0.4,0.7,0.2,1C16.1,13.9,15.8,14,15.6,14z"/>
		</g>
	</g>
</g>
</svg>
