<?xml version="1.0" encoding="utf-8"?>
<!-- Generator: Adobe Illustrator 27.2.0, SVG Export Plug-In . SVG Version: 6.00 Build 0)  -->
<svg version="1.1" id="Layer_1" xmlns="http://www.w3.org/2000/svg" xmlns:xlink="http://www.w3.org/1999/xlink" x="0px" y="0px"
	 viewBox="0 0 174 174" style="enable-background:new 0 0 174 174;" xml:space="preserve">
<style type="text/css">
	.st0{fill:#DCE2E6;}
	.st1{fill:#FF5757;}
</style>
<g id="Group_16441">
	<g id="Group">
		<g id="Vector">
			<path class="st0" d="M130.5,155.2h-87c-9.6,0-17.5-7.9-17.5-17.5V36.2c0-9.6,7.9-17.5,17.5-17.5h87c9.6,0,17.5,7.9,17.5,17.5
				v101.5C148,147.4,140.1,155.2,130.5,155.2z M43.5,24.8c-6.3,0-11.5,5.2-11.5,11.5v101.5c0,6.3,5.2,11.5,11.5,11.5h87
				c6.3,0,11.5-5.2,11.5-11.5V36.2c0-6.3-5.2-11.5-11.5-11.5H43.5z"/>
		</g>
		<g id="Vector_2">
			<path class="st0" d="M116,104.5H58c-1.7,0-3-1.3-3-3s1.3-3,3-3h58c1.7,0,3,1.3,3,3S117.7,104.5,116,104.5z"/>
		</g>
		<g id="Vector_3">
			<path class="st0" d="M116,126.2H58c-1.7,0-3-1.3-3-3s1.3-3,3-3h58c1.7,0,3,1.3,3,3S117.7,126.2,116,126.2z"/>
		</g>
		<g id="Vector_4">
			<path class="st1" d="M77.9,75.5c-0.8,0-1.5-0.3-2.1-0.9c-1.2-1.2-1.2-3.1,0-4.2l18.1-18.1c1.2-1.2,3.1-1.2,4.2,0
				c1.2,1.2,1.2,3.1,0,4.2L80.1,74.6C79.5,75.2,78.7,75.5,77.9,75.5z"/>
		</g>
		<g id="Vector_5">
			<path class="st1" d="M96.1,75.5c-0.8,0-1.5-0.3-2.1-0.9L75.8,56.5c-1.2-1.2-1.2-3.1,0-4.2c1.2-1.2,3.1-1.2,4.2,0l18.1,18.1
				c1.2,1.2,1.2,3.1,0,4.2C97.6,75.2,96.8,75.5,96.1,75.5z"/>
		</g>
	</g>
</g>
</svg>
