<?xml version="1.0" encoding="utf-8"?>
<!-- Generator: Adobe Illustrator 27.2.0, SVG Export Plug-In . SVG Version: 6.00 Build 0)  -->
<svg version="1.1" id="Layer_1" xmlns="http://www.w3.org/2000/svg" xmlns:xlink="http://www.w3.org/1999/xlink" x="0px" y="0px"
	 viewBox="0 0 24 24" style="enable-background:new 0 0 24 24;" xml:space="preserve">
<style type="text/css">
	.st0{fill:#A1AEB6;}
</style>
<g id="Group_16438">
	<g id="Vector">
		<path class="st0" d="M21,12.7H3.3c-0.4,0-0.8-0.3-0.8-0.8s0.3-0.8,0.8-0.8H21c0.4,0,0.8,0.3,0.8,0.8S21.4,12.7,21,12.7z"/>
	</g>
	<g id="Vector_2">
		<path class="st0" d="M15.6,18.1c-0.7,0-1.4-0.1-2.1-0.4c-1-0.4-2-0.4-3,0c-1.3,0.6-2.9,0.6-4.2,0c-1-0.4-2-0.4-3,0
			c-0.4,0.2-0.8,0-1-0.4c-0.2-0.4,0-0.8,0.4-1c1.3-0.6,2.9-0.6,4.2,0c1,0.4,2,0.4,3,0c1.3-0.6,2.9-0.6,4.2,0c1,0.4,2,0.4,3,0
			c1.3-0.6,2.9-0.6,4.2,0c0.4,0.2,0.6,0.6,0.4,1c-0.2,0.4-0.6,0.6-1,0.4c-1-0.4-2-0.4-3,0C17,18,16.3,18.1,15.6,18.1z"/>
	</g>
	<g id="Vector_3">
		<path class="st0" d="M19,21.8H5c-0.7,0-1.4-0.3-1.9-0.8c-0.5-0.5-0.8-1.2-0.8-1.9v-6.1c0-0.4,0.1-0.8,0.3-1.2s0.4-0.7,0.8-1l0,0
			l8.7-6.9c0.3-0.2,0.6-0.4,1-0.5c0.4-0.1,0.7-0.1,1.1-0.1c2.1,0.3,4.1,1.3,5.5,2.9c1.4,1.6,2.2,3.7,2.2,5.8v7
			c0,0.7-0.3,1.4-0.8,1.9C20.4,21.5,19.7,21.7,19,21.8z M4.2,12c-0.1,0.1-0.3,0.3-0.3,0.4s-0.1,0.4-0.1,0.5V19
			c0,0.3,0.1,0.7,0.4,0.9c0.2,0.2,0.5,0.4,0.9,0.4h14c0.3,0,0.6-0.1,0.9-0.4c0.2-0.2,0.4-0.6,0.4-0.9v-7c0-1.8-0.6-3.5-1.8-4.8
			c-1.2-1.3-2.8-2.2-4.6-2.4c-0.2,0-0.3,0-0.5,0c-0.2,0-0.3,0.1-0.5,0.2L4.2,12z"/>
	</g>
</g>
</svg>
