<?xml version="1.0" encoding="utf-8"?>
<!-- Generator: Adobe Illustrator 27.2.0, SVG Export Plug-In . SVG Version: 6.00 Build 0)  -->
<svg version="1.1" id="Layer_1" xmlns="http://www.w3.org/2000/svg" xmlns:xlink="http://www.w3.org/1999/xlink" x="0px" y="0px"
	 viewBox="0 0 44 44" style="enable-background:new 0 0 44 44;" xml:space="preserve">
<style type="text/css">
	.st0{fill:#DCE2E6;}
</style>
<g id="Group_16425">
	<g id="Vector">
		<path class="st0" d="M18.6,37.4c-0.1,0-0.3,0-0.4-0.1c-0.2-0.1-0.4-0.4-0.4-0.7v-7.4c-6.2,0-11.2-5-11.3-11.2c0-0.1,0-0.1,0-0.2
			c0-6.3,5.1-11.4,11.3-11.4h7c0,0,0,0,0,0c3.3,0,6.4,1.3,8.8,3.6c2.4,2.4,3.7,5.5,3.7,8.9c0,4.4-2.2,8.3-5.9,10.6L19,37.2
			C18.9,37.3,18.8,37.4,18.6,37.4z M19.4,28.9v6.4l11.2-6.9c3.3-2,5.2-5.5,5.2-9.4c0-2.9-1.1-5.7-3.2-7.8C30.5,9.2,27.8,8,24.9,8
			c0,0,0,0,0,0h-7c-5.4,0-9.8,4.3-9.8,9.7c0,0.1,0,0.1,0,0.2c0,5.4,4.4,9.8,9.8,9.8l0.4,0c0.2-0.1,0.5-0.1,0.7,0.1
			c0.3,0.1,0.5,0.4,0.5,0.7C19.5,28.7,19.4,28.8,19.4,28.9z"/>
	</g>
</g>
</svg>
