<?xml version="1.0" encoding="utf-8"?>
<!-- Generator: Adobe Illustrator 27.2.0, SVG Export Plug-In . SVG Version: 6.00 Build 0)  -->
<svg version="1.1" id="Layer_1" xmlns="http://www.w3.org/2000/svg" xmlns:xlink="http://www.w3.org/1999/xlink" x="0px" y="0px"
	 viewBox="0 0 24 25" style="enable-background:new 0 0 24 25;" xml:space="preserve">
<style type="text/css">
	.st0{fill:#A1AEB6;}
</style>
<g id="Group_16415">
	<g id="Group">
		<g id="Vector">
			<path class="st0" d="M16,17.2c-0.2,0-0.4-0.1-0.5-0.2l-8-8C7.2,8.7,7.2,8.3,7.5,8s0.8-0.3,1.1,0l8,8c0.3,0.3,0.3,0.8,0,1.1
				C16.4,17.2,16.2,17.2,16,17.2z"/>
		</g>
		<g id="Vector_2">
			<path class="st0" d="M8,17.2c-0.2,0-0.4-0.1-0.5-0.2c-0.3-0.3-0.3-0.8,0-1.1l8-8c0.3-0.3,0.8-0.3,1.1,0s0.3,0.8,0,1.1l-8,8
				C8.4,17.2,8.2,17.2,8,17.2z"/>
		</g>
	</g>
</g>
</svg>
