<?xml version="1.0" encoding="utf-8"?>
<!-- Generator: Adobe Illustrator 27.2.0, SVG Export Plug-In . SVG Version: 6.00 Build 0)  -->
<svg version="1.1" id="Layer_1" xmlns="http://www.w3.org/2000/svg" xmlns:xlink="http://www.w3.org/1999/xlink" x="0px" y="0px"
	 viewBox="0 0 24 24" style="enable-background:new 0 0 24 24;" xml:space="preserve">
<style type="text/css">
	.st0{fill:#A1AEB6;}
</style>
<g id="Group_16440">
	<g id="Group">
		<g id="Vector">
			<path class="st0" d="M21,8.8H3C2.6,8.8,2.2,8.4,2.2,8S2.6,7.2,3,7.2h18c0.4,0,0.8,0.3,0.8,0.8S21.4,8.8,21,8.8z"/>
		</g>
		<g id="Vector_2">
			<path class="st0" d="M9.5,12.8H7c-0.4,0-0.8-0.3-0.8-0.8s0.3-0.8,0.8-0.8h2.5c0.4,0,0.8,0.3,0.8,0.8S9.9,12.8,9.5,12.8z"/>
		</g>
		<g id="Vector_3">
			<path class="st0" d="M9,18.8H6c-2.1,0-3.8-1.7-3.8-3.8V7c0-2.1,1.7-3.8,3.8-3.8h12c2.1,0,3.8,1.7,3.8,3.8v4
				c0,0.4-0.3,0.8-0.8,0.8s-0.8-0.3-0.8-0.8V7c0-1.2-1-2.2-2.2-2.2H6c-1.2,0-2.2,1-2.2,2.2v8c0,1.2,1,2.2,2.2,2.2h3
				c0.4,0,0.8,0.3,0.8,0.8S9.4,18.8,9,18.8z"/>
		</g>
		<g id="Vector_4">
			<path class="st0" d="M17,22.7c-0.4,0-0.9-0.1-1.3-0.4L15,21.8l-0.9-0.1c-0.9-0.1-1.7-0.9-1.8-1.8c0,0,0,0,0,0L12.2,19l-0.5-0.7
				c-0.6-0.7-0.6-1.8,0-2.5l0.5-0.7l0.1-0.9c0.1-0.9,0.9-1.7,1.8-1.8l0.9-0.1l0.7-0.5c0.7-0.6,1.8-0.6,2.5,0l0.7,0.5l0.9,0.1
				c0.9,0.1,1.7,0.9,1.8,1.8l0.1,0.9l0.5,0.7c0.6,0.7,0.6,1.8,0,2.5L21.8,19l-0.1,0.9c-0.1,0.9-0.9,1.7-1.8,1.8L19,21.8l-0.7,0.5
				C17.9,22.6,17.4,22.7,17,22.7z M13.8,19.7c0,0.3,0.2,0.5,0.5,0.5l1.1,0.1c0.1,0,0.3,0.1,0.4,0.1l0.9,0.7c0.2,0.2,0.5,0.2,0.7,0
				l0.9-0.7c0.1-0.1,0.2-0.1,0.4-0.1l1.1-0.1c0.3,0,0.5-0.2,0.5-0.5l0.1-1.1c0-0.1,0.1-0.3,0.1-0.4l0.7-0.9c0.2-0.2,0.2-0.5,0-0.7
				l-0.7-0.9c-0.1-0.1-0.1-0.2-0.1-0.4l-0.1-1.1c0-0.3-0.2-0.5-0.5-0.5l-1.1-0.1c-0.1,0-0.3-0.1-0.4-0.1l-0.9-0.7
				c-0.2-0.2-0.5-0.2-0.7,0l-0.9,0.7c-0.1,0.1-0.2,0.1-0.4,0.1l-1.1,0.1c-0.3,0-0.5,0.2-0.5,0.5l-0.1,1.1c0,0.1-0.1,0.3-0.1,0.4
				l-0.7,0.9c-0.2,0.2-0.2,0.5,0,0.7l0.7,0.9c0.1,0.1,0.1,0.2,0.1,0.4L13.8,19.7z"/>
		</g>
		<g id="Vector_5">
			<path class="st0" d="M16.6,18.9c-0.2,0-0.4-0.1-0.5-0.2l-1.2-1.2c-0.3-0.3-0.3-0.8,0-1.1s0.8-0.3,1.1,0l0.6,0.6l1.4-1.4
				c0.3-0.3,0.8-0.3,1.1,0c0.3,0.3,0.3,0.8,0,1.1l-1.9,1.9C17,18.8,16.8,18.9,16.6,18.9z"/>
		</g>
	</g>
</g>
</svg>
