<?xml version="1.0" encoding="utf-8"?>
<!-- Generator: Adobe Illustrator 27.2.0, SVG Export Plug-In . SVG Version: 6.00 Build 0)  -->
<svg version="1.1" id="Layer_1" xmlns="http://www.w3.org/2000/svg" xmlns:xlink="http://www.w3.org/1999/xlink" x="0px" y="0px"
	 viewBox="0 0 24 25" style="enable-background:new 0 0 24 25;" xml:space="preserve">
<style type="text/css">
	.st0{fill:#A1AEB6;}
</style>
<g id="Group">
	<g id="Path">
		<path class="st0" d="M14.3,12.2H9.7c-0.4,0-0.8-0.3-0.8-0.8s0.3-0.8,0.8-0.8h4.6c0.4,0,0.8,0.3,0.8,0.8S14.7,12.2,14.3,12.2z"/>
	</g>
	<g id="Path_2">
		<path class="st0" d="M11.2,17.4c-0.4,0-0.8-0.3-0.8-0.8V9.9c0-1.7,1.4-3,3-3h0.8c0.4,0,0.8,0.3,0.8,0.8s-0.3,0.8-0.8,0.8h-0.8
			C12.7,8.4,12,9,12,9.9v6.8C12,17.1,11.6,17.4,11.2,17.4z"/>
	</g>
	<g id="Oval">
		<path class="st0" d="M12,22.9c-5.9,0-10.8-4.8-10.8-10.8S6.1,1.4,12,1.4s10.8,4.8,10.8,10.8S17.9,22.9,12,22.9z M12,2.9
			c-5.1,0-9.2,4.1-9.2,9.2s4.1,9.2,9.2,9.2s9.2-4.1,9.2-9.2S17.1,2.9,12,2.9z"/>
	</g>
</g>
</svg>
