<?xml version="1.0" encoding="utf-8"?>
<!-- Generator: Adobe Illustrator 27.2.0, SVG Export Plug-In . SVG Version: 6.00 Build 0)  -->
<svg version="1.1" id="Layer_1" xmlns="http://www.w3.org/2000/svg" xmlns:xlink="http://www.w3.org/1999/xlink" x="0px" y="0px"
	 viewBox="0 0 136 22" style="enable-background:new 0 0 136 22;" xml:space="preserve">
<style type="text/css">
	.st0{fill:#DCE2E6;}
</style>
<path class="st0" d="M9.8,22c-1.8,0-3.4-0.3-4.9-1c-1.4-0.7-2.5-1.6-3.3-2.9c-0.8-1.3-1.2-2.8-1.2-4.5c0-0.8,0.1-1.6,0.3-2.5
	c0.5-2.2,1.4-4.1,2.6-5.8c1.3-1.7,2.9-2.9,4.8-3.8c1.9-0.9,4-1.4,6.3-1.4c1.5,0,2.8,0.1,3.9,0.4c1.1,0.3,2.1,0.7,3,1.4l-1,5
	c-0.7-0.7-1.6-1.2-2.7-1.5c-1-0.3-2.3-0.5-3.7-0.5c-2.1,0-3.8,0.5-5.1,1.6C7.4,7.7,6.6,9.1,6.2,11c-0.2,0.8-0.2,1.4-0.2,2
	c0,2.8,1.7,4.1,5.1,4.1c1.1,0,2-0.2,2.8-0.5l0.7-3.4h-3.2l0.8-3.7h8.2L18.1,20C15.7,21.3,12.9,22,9.8,22z M27.4,13.5l-5-13h5.5
	l3,8.1l6.7-8.1h5.8l-10.7,13l-1.7,8h-5.3L27.4,13.5z M44.5,0.5h5l3.3,13l8.8-13h5.2l-4.4,21h-5L59.6,11l-7.2,10.5H50L47.2,11
	L45,21.5h-5L44.5,0.5z M69.5,0.5h9.2c2,0,3.6,0.5,4.8,1.5c1.2,1,1.9,2.4,1.9,4.2c0,0.5-0.1,1-0.2,1.6c-0.5,2.4-1.6,4.2-3.2,5.5
	c-1.6,1.3-3.8,1.9-6.4,1.9h-3.9l-1.3,6.3h-5.3L69.5,0.5z M75.7,10.8c1.2,0,2.1-0.2,2.7-0.6c0.6-0.4,1-1.2,1.3-2.3
	c0.1-0.4,0.1-0.7,0.1-0.9c0-0.7-0.3-1.2-0.8-1.5C78.6,5.2,77.9,5,76.9,5h-3.1l-1.2,5.8H75.7z M93.4,0.5h5.2l3.9,21h-5.3l-0.8-4.3
	h-7.7l-2.6,4.3h-5.6L93.4,0.5z M96,13.1L95,6.1l-4.1,7.1H96z M109.1,0.5h5.3L110.9,17h9.1l-0.9,4.5h-14.4L109.1,0.5z M125,0.5h5.3
	L126.8,17h9.1l-0.9,4.5h-14.4L125,0.5z"/>
</svg>
