<?xml version="1.0" encoding="utf-8"?>
<!-- Generator: Adobe Illustrator 27.2.0, SVG Export Plug-In . SVG Version: 6.00 Build 0)  -->
<svg version="1.1" id="Layer_1" xmlns="http://www.w3.org/2000/svg" xmlns:xlink="http://www.w3.org/1999/xlink" x="0px" y="0px"
	 viewBox="0 0 18 19" style="enable-background:new 0 0 18 19;" xml:space="preserve">
<style type="text/css">
	.st0{fill:#A1AEB6;}
</style>
<g id="Group_3">
	<g id="Group">
		<g id="Vector">
			<path class="st0" d="M15.8,5H2.2C1.8,5,1.5,4.7,1.5,4.2s0.3-0.8,0.8-0.8h13.5c0.4,0,0.8,0.3,0.8,0.8S16.2,5,15.8,5z"/>
		</g>
		<g id="Vector_2">
			<path class="st0" d="M15.8,10.2H2.2c-0.4,0-0.8-0.3-0.8-0.8s0.3-0.8,0.8-0.8h13.5c0.4,0,0.8,0.3,0.8,0.8S16.2,10.2,15.8,10.2z"/>
		</g>
		<g id="Vector_3">
			<path class="st0" d="M15.8,15.5H2.2c-0.4,0-0.8-0.3-0.8-0.8S1.8,14,2.2,14h13.5c0.4,0,0.8,0.3,0.8,0.8S16.2,15.5,15.8,15.5z"/>
		</g>
	</g>
</g>
</svg>
