<?xml version="1.0" encoding="utf-8"?>
<!-- Generator: Adobe Illustrator 27.2.0, SVG Export Plug-In . SVG Version: 6.00 Build 0)  -->
<svg version="1.1" id="Layer_1" xmlns="http://www.w3.org/2000/svg" xmlns:xlink="http://www.w3.org/1999/xlink" x="0px" y="0px"
	 viewBox="0 0 34 35" style="enable-background:new 0 0 34 35;" xml:space="preserve">
<style type="text/css">
	.st0{fill:#A1AEB6;}
</style>
<g id="Group_16419">
	<g id="Group">
		<g id="Vector">
			<path class="st0" d="M19.2,31.9c-0.4,0-0.7-0.3-0.7-0.6c-0.1-0.4,0.2-0.8,0.6-0.9c6.6-1,11.3-6.6,11.3-13.3
				c0-5.8-3.7-11-9.3-12.8c-0.4-0.1-0.6-0.6-0.5-0.9C20.8,3,21.2,2.8,21.6,3c6.2,2,10.3,7.7,10.3,14.2c0,7.4-5.3,13.6-12.6,14.7
				C19.3,31.9,19.3,31.9,19.2,31.9z"/>
		</g>
		<g id="Vector_2">
			<path class="st0" d="M12.6,31.4c-0.1,0-0.2,0-0.2,0c-6.2-2-10.3-7.7-10.3-14.2c0-7.4,5.3-13.6,12.6-14.7c0.4-0.1,0.8,0.2,0.9,0.6
				s-0.2,0.8-0.6,0.9c-6.6,1-11.3,6.6-11.3,13.3c0,5.8,3.7,11,9.3,12.8c0.4,0.1,0.6,0.6,0.5,0.9C13.2,31.2,12.9,31.4,12.6,31.4z"/>
		</g>
		<g id="Vector_3">
			<path class="st0" d="M17,27.8c-0.4,0-0.8-0.3-0.8-0.8s0.3-0.8,0.8-0.8c5.1,0,9.2-4.1,9.2-9.2S22.1,8,17,8c-0.4,0-0.8-0.3-0.8-0.8
				s0.3-0.8,0.8-0.8c5.9,0,10.7,4.8,10.7,10.7S22.9,27.8,17,27.8z"/>
		</g>
		<g id="Vector_4">
			<path class="st0" d="M17,27.8c-5.9,0-10.7-4.8-10.7-10.7S11.1,6.5,17,6.5c0.4,0,0.8,0.3,0.8,0.8S17.4,8,17,8
				c-5.1,0-9.2,4.1-9.2,9.2s4.1,9.2,9.2,9.2c0.4,0,0.8,0.3,0.8,0.8S17.4,27.8,17,27.8z"/>
		</g>
		<g id="Vector_5">
			<path class="st0" d="M17,20.7c-0.4,0-0.8-0.3-0.8-0.8v-5.7c0-0.4,0.3-0.8,0.8-0.8s0.8,0.3,0.8,0.8V20
				C17.8,20.4,17.4,20.7,17,20.7z"/>
		</g>
		<g id="Vector_6">
			<path class="st0" d="M19.8,17.9h-5.7c-0.4,0-0.8-0.3-0.8-0.8s0.3-0.8,0.8-0.8h5.7c0.4,0,0.8,0.3,0.8,0.8S20.2,17.9,19.8,17.9z"/>
		</g>
	</g>
</g>
</svg>
