<?xml version="1.0" encoding="utf-8"?>
<!-- Generator: Adobe Illustrator 27.2.0, SVG Export Plug-In . SVG Version: 6.00 Build 0)  -->
<svg version="1.1" id="Layer_1" xmlns="http://www.w3.org/2000/svg" xmlns:xlink="http://www.w3.org/1999/xlink" x="0px" y="0px"
	 viewBox="0 0 24 25" style="enable-background:new 0 0 24 25;" xml:space="preserve">
<style type="text/css">
	.st0{fill:#DCE2E6;}
</style>
<g id="Group_16428">
	<g id="Group">
		<g id="Vector">
			<path class="st0" d="M12,22.6c-5.4,0-9.8-4.4-9.8-9.8c0-5.4,4.4-9.8,9.8-9.8s9.8,4.4,9.8,9.8C21.8,18.2,17.4,22.6,12,22.6z
				 M12,4.6c-4.5,0-8.2,3.7-8.2,8.2c0,4.5,3.7,8.3,8.2,8.3s8.2-3.7,8.2-8.3C20.2,8.3,16.5,4.6,12,4.6z"/>
		</g>
		<g id="Vector_2">
			<path class="st0" d="M13.3,17.1H11c-0.4,0-0.8-0.3-0.8-0.8s0.3-0.8,0.8-0.8h2.3c0.4,0,0.8,0.3,0.8,0.8S13.7,17.1,13.3,17.1z"/>
		</g>
		<g id="Vector_3">
			<path class="st0" d="M12.2,17.1c-0.4,0-0.8-0.3-0.8-0.8v-3.5H11c-0.4,0-0.8-0.3-0.8-0.8s0.3-0.8,0.8-0.8h1.1
				c0.4,0,0.8,0.3,0.8,0.8v4.3C12.9,16.8,12.6,17.1,12.2,17.1z"/>
		</g>
		<g id="Vector_4">
			<path class="st0" d="M11.8,10.1c-0.6,0-1-0.4-1-1s0.4-1,1-1c0.3,0,0.5,0.1,0.6,0.4c0.2,0.1,0.4,0.4,0.4,0.6
				C12.8,9.7,12.4,10.1,11.8,10.1z"/>
		</g>
		<g id="Vector_5">
			<path class="st0" d="M12.1,9.9c-0.3,0-0.5-0.1-0.6-0.4c-0.2-0.1-0.4-0.4-0.4-0.6c0-0.4,0.3-0.8,0.8-0.8c0.6,0,1,0.4,1,1
				C12.8,9.5,12.5,9.9,12.1,9.9z M11.8,9.6L11.8,9.6L11.8,9.6z"/>
		</g>
	</g>
</g>
</svg>
