<?xml version="1.0" encoding="utf-8"?>
<!-- Generator: Adobe Illustrator 27.2.0, SVG Export Plug-In . SVG Version: 6.00 Build 0)  -->
<svg version="1.1" id="Layer_1" xmlns="http://www.w3.org/2000/svg" xmlns:xlink="http://www.w3.org/1999/xlink" x="0px" y="0px"
	 viewBox="0 0 24 25" style="enable-background:new 0 0 24 25;" xml:space="preserve">
<style type="text/css">
	.st0{fill:#A1AEB6;}
</style>
<g id="_x32_4px_x2F_icon_x2F_instagram">
	<g id="Path">
		<path class="st0" d="M16.5,21.9h-9c-2.9,0-5.2-2.4-5.2-5.2v-9c0-2.9,2.4-5.2,5.2-5.2h9c2.9,0,5.2,2.4,5.2,5.2v9
			C21.8,19.5,19.4,21.9,16.5,21.9z M7.5,3.9c-2.1,0-3.7,1.7-3.7,3.7v9c0,2.1,1.7,3.7,3.7,3.7h9c2.1,0,3.7-1.7,3.7-3.7v-9
			c0-2.1-1.7-3.7-3.7-3.7H7.5z"/>
	</g>
	<g id="Path_2">
		<path class="st0" d="M17,8.3c-0.6,0-1.1-0.5-1.1-1.1c0-0.6,0.5-1.1,1.1-1.1c0.3,0,0.6,0.1,0.8,0.3C17.9,6.6,18,6.9,18,7.2
			C18,7.8,17.5,8.3,17,8.3z M17,6.8c-0.2,0-0.4,0.2-0.4,0.4c0,0.1,0,0.2,0.1,0.3c0.1,0.1,0.2,0.1,0.3,0.1L17,6.8l0,0.8
			c0.2,0,0.4-0.2,0.4-0.4C17.4,7,17.2,6.8,17,6.8z"/>
	</g>
	<g id="Path_3">
		<path class="st0" d="M12,16.5c-1.1,0-2.2-0.4-3.1-1.3c-1.7-1.7-1.7-4.5,0-6.2c1.7-1.7,4.5-1.7,6.2,0l0,0c1.7,1.7,1.7,4.5,0,6.2
			C14.2,16.1,13.1,16.5,12,16.5z M12,9.3c-0.7,0-1.5,0.3-2,0.8c-1.1,1.1-1.1,2.9,0,4c1.1,1.1,2.9,1.1,4,0c1.1-1.1,1.1-2.9,0-4
			C13.5,9.6,12.7,9.3,12,9.3z"/>
	</g>
</g>
</svg>
