<?xml version="1.0" encoding="utf-8"?>
<!-- Generator: Adobe Illustrator 27.2.0, SVG Export Plug-In . SVG Version: 6.00 Build 0)  -->
<svg version="1.1" id="Layer_1" xmlns="http://www.w3.org/2000/svg" xmlns:xlink="http://www.w3.org/1999/xlink" x="0px" y="0px"
	 viewBox="0 0 24 25" style="enable-background:new 0 0 24 25;" xml:space="preserve">
<style type="text/css">
	.st0{fill:#A1AEB6;}
</style>
<g id="Group_16418">
	<g id="Group">
		<g id="Vector">
			<path class="st0" d="M12,20.8c-0.7,0-9.8-5-9.8-11c0-3.1,2.4-6.5,6-6.5c1.7,0,2.9,0.7,3.7,1.4c0.8-0.7,2-1.4,3.7-1.4
				c3.6,0,6,3.4,6,6.5C21.8,15.8,12.7,20.8,12,20.8z M8.3,4.8c-2.7,0-4.5,2.6-4.5,5c0,4.5,6.6,8.6,8.2,9.4c1.6-0.8,8.2-4.9,8.2-9.4
				c0-2.4-1.8-5-4.5-5c-1.6,0-2.6,0.8-3.1,1.4c-0.3,0.3-0.9,0.3-1.1,0C10.9,5.6,9.9,4.8,8.3,4.8z"/>
		</g>
	</g>
</g>
</svg>
