<?xml version="1.0" encoding="utf-8"?>
<!-- Generator: Adobe Illustrator 27.2.0, SVG Export Plug-In . SVG Version: 6.00 Build 0)  -->
<svg version="1.1" id="Layer_1" xmlns="http://www.w3.org/2000/svg" xmlns:xlink="http://www.w3.org/1999/xlink" x="0px" y="0px"
	 viewBox="0 0 24 25" style="enable-background:new 0 0 24 25;" xml:space="preserve">
<style type="text/css">
	.st0{fill:#A1AEB6;}
</style>
<g>
	<path class="st0" d="M16.5,21.9h-9c-2.9,0-5.2-2.4-5.2-5.2v-9c0-2.9,2.4-5.2,5.2-5.2h9c2.9,0,5.2,2.4,5.2,5.2v9
		C21.8,19.5,19.4,21.9,16.5,21.9z M7.5,3.9c-2.1,0-3.8,1.7-3.8,3.8v9c0,2.1,1.7,3.7,3.7,3.7h9c2.1,0,3.7-1.7,3.7-3.7v-9
		c0-2.1-1.7-3.7-3.7-3.7H7.5z"/>
</g>
<g>
	<path class="st0" d="M8.1,17.4c-0.4,0-0.8-0.3-0.8-0.8v-5.4c0-0.4,0.3-0.8,0.8-0.8s0.8,0.3,0.8,0.8v5.4C8.9,17.1,8.5,17.4,8.1,17.4
		z"/>
</g>
<g>
	<path class="st0" d="M16.2,17.4c-0.4,0-0.8-0.3-0.8-0.8v-3.2c0-0.8-0.7-1.5-1.5-1.5s-1.5,0.7-1.5,1.5v3.2c0,0.4-0.3,0.8-0.8,0.8
		S11,17.1,11,16.7v-3.2c0-1.7,1.3-3,3-3c1.7,0,3,1.3,3,3v3.2C17,17.1,16.6,17.4,16.2,17.4z"/>
</g>
<g>
	<path class="st0" d="M8.1,9.2c-0.5,0-1-0.4-1-1c0-0.3,0.1-0.5,0.3-0.7c0.2-0.2,0.4-0.3,0.7-0.3c0.5,0,1,0.4,1,1S8.7,9.2,8.1,9.2z
		 M8.1,7.7c-0.3,0-0.5,0.2-0.5,0.5c0,0.4,0.6,0.7,0.9,0.4c0.1-0.1,0.2-0.2,0.2-0.4C8.6,7.9,8.4,7.7,8.1,7.7z"/>
</g>
</svg>
