<?xml version="1.0" encoding="utf-8"?>
<!-- Generator: Adobe Illustrator 27.2.0, SVG Export Plug-In . SVG Version: 6.00 Build 0)  -->
<svg version="1.1" id="Layer_1" xmlns="http://www.w3.org/2000/svg" xmlns:xlink="http://www.w3.org/1999/xlink" x="0px" y="0px"
	 viewBox="0 0 18 19" style="enable-background:new 0 0 18 19;" xml:space="preserve">
<style type="text/css">
	.st0{fill:#A1AEB6;}
</style>
<g id="Location">
	<g id="Path">
		<path class="st0" d="M9,17.3c-0.1,0-0.3-0.1-0.4-0.2C8.4,16.9,2.9,11,2.9,7.8c0-3.3,2.8-6.1,6.1-6.1s6.1,2.8,6.1,6.1
			c0,3.2-5.5,9.1-5.8,9.3C9.3,17.3,9.1,17.3,9,17.3z M9,2.7c-2.7,0-5.1,2.4-5.1,5.1c0,2.2,3.4,6.4,5.1,8.3c1.7-1.9,5.1-6.1,5.1-8.3
			C14.1,5.1,11.7,2.7,9,2.7z"/>
	</g>
	<g id="Path_2">
		<path class="st0" d="M9,11.1c-1.8,0-3.3-1.5-3.3-3.3S7.2,4.5,9,4.5c1.8,0,3.3,1.5,3.3,3.3S10.8,11.1,9,11.1z M9,5.5
			c-1.3,0-2.3,1-2.3,2.3s1,2.3,2.3,2.3c1.3,0,2.3-1,2.3-2.3S10.3,5.5,9,5.5z"/>
	</g>
</g>
</svg>
