<?xml version="1.0" encoding="utf-8"?>
<!-- Generator: Adobe Illustrator 27.2.0, SVG Export Plug-In . SVG Version: 6.00 Build 0)  -->
<svg version="1.1" id="Layer_1" xmlns="http://www.w3.org/2000/svg" xmlns:xlink="http://www.w3.org/1999/xlink" x="0px" y="0px"
	 viewBox="0 0 24 25" style="enable-background:new 0 0 24 25;" xml:space="preserve">
<style type="text/css">
	.st0{fill:#A799FF;}
</style>
<g id="Group_16421">
	<g id="Group">
		<g id="Vector">
			<path class="st0" d="M8.5,21.2H4c-0.4,0-0.8-0.3-0.8-0.8V16c0-0.7,0.3-1.3,0.7-1.8L14.7,3.5c1-1,2.6-1,3.5,0c0,0,0,0,0,0L21,6.3
				c1,1,1,2.6,0,3.5L10.3,20.5C9.8,21,9.2,21.2,8.5,21.2z M4.8,19.8h3.8c0.3,0,0.5-0.1,0.7-0.3L20,8.7c0.4-0.4,0.4-1,0-1.4l-2.8-2.8
				c0,0,0,0,0,0c-0.4-0.4-1-0.4-1.4,0L5,15.3c-0.2,0.2-0.3,0.4-0.3,0.7V19.8z"/>
		</g>
		<g id="Vector_2">
			<path class="st0" d="M18,12.2c-0.2,0-0.4-0.1-0.5-0.2l-5-5c-0.3-0.3-0.3-0.8,0-1.1c0.3-0.3,0.8-0.3,1.1,0l5,5
				c0.3,0.3,0.3,0.8,0,1.1C18.4,12.2,18.2,12.2,18,12.2z"/>
		</g>
		<g id="Vector_3">
			<path class="st0" d="M9,16.2c-0.2,0-0.4-0.1-0.5-0.2c-0.3-0.3-0.3-0.8,0-1.1l3-3c0.3-0.3,0.8-0.3,1.1,0s0.3,0.8,0,1.1l-3,3
				C9.4,16.2,9.2,16.2,9,16.2z"/>
		</g>
	</g>
</g>
</svg>
