<?xml version="1.0" encoding="utf-8"?>
<!-- Generator: Adobe Illustrator 27.2.0, SVG Export Plug-In . SVG Version: 6.00 Build 0)  -->
<svg version="1.1" id="Layer_1" xmlns="http://www.w3.org/2000/svg" xmlns:xlink="http://www.w3.org/1999/xlink" x="0px" y="0px"
	 viewBox="0 0 24 25" style="enable-background:new 0 0 24 25;" xml:space="preserve">
<style type="text/css">
	.st0{fill:#A1AEB6;}
</style>
<g id="Group_16424">
	<g id="Group">
		<g id="Vector">
			<path class="st0" d="M10,6.3C9.2,6.2,8.7,5.6,8.8,4.9l0-1.7c0-0.4,0.3-0.8,0.8-0.8s0.8,0.3,0.8,0.8v1.7l3.5,0l0-1.6
				c0-0.4,0.3-0.8,0.8-0.8s0.8,0.3,0.8,0.8V5c0.1,0.6-0.5,1.3-1.2,1.3L10,6.3z M13.8,5C13.8,5,13.8,5,13.8,5L13.8,5z M10.2,4.9
				L10.2,4.9C10.3,4.9,10.3,4.9,10.2,4.9z"/>
		</g>
		<g id="Vector_2">
			<path class="st0" d="M14,18.9h-4c-0.4,0-0.8-0.3-0.8-0.8s0.3-0.8,0.8-0.8h4c0.4,0,0.8,0.3,0.8,0.8S14.4,18.9,14,18.9z"/>
		</g>
		<g id="Vector_3">
			<path class="st0" d="M16,21.9H8c-1.5,0-2.8-1.2-2.8-2.8v-14c0-1.5,1.2-2.8,2.8-2.8h8c1.5,0,2.8,1.2,2.8,2.8v14
				C18.8,20.7,17.5,21.9,16,21.9z M8,3.9c-0.7,0-1.2,0.6-1.2,1.2v14c0,0.7,0.6,1.2,1.2,1.2h8c0.7,0,1.2-0.6,1.2-1.2v-14
				c0-0.7-0.6-1.2-1.2-1.2H8z"/>
		</g>
	</g>
</g>
</svg>
