<?xml version="1.0" encoding="utf-8"?>
<!-- Generator: Adobe Illustrator 27.2.0, SVG Export Plug-In . SVG Version: 6.00 Build 0)  -->
<svg version="1.1" id="Layer_1" xmlns="http://www.w3.org/2000/svg" xmlns:xlink="http://www.w3.org/1999/xlink" x="0px" y="0px"
	 viewBox="0 0 25 24" style="enable-background:new 0 0 25 24;" xml:space="preserve">
<style type="text/css">
	.st0{fill:#A1AEB6;}
</style>
<g id="Group_2">
	<g id="Group">
		<g id="Vector">
			<path class="st0" d="M11.4,18.3c-1.9,0-3.6-0.7-5-2.1c-1.3-1.3-2.1-3.1-2.1-5s0.7-3.6,2.1-5c1.3-1.3,3.1-2.1,5-2.1
				c1.9,0,3.6,0.7,5,2.1l0,0l0,0c1.3,1.3,2.1,3.1,2.1,5s-0.7,3.6-2.1,5C15,17.6,13.3,18.3,11.4,18.3z M11.4,5.8
				c-1.5,0-2.9,0.6-3.9,1.6s-1.6,2.4-1.6,3.9s0.6,2.9,1.6,3.9s2.4,1.6,3.9,1.6s2.9-0.6,3.9-1.6s1.6-2.4,1.6-3.9s-0.6-2.9-1.6-3.9
				l0,0C14.3,6.3,12.9,5.8,11.4,5.8z"/>
		</g>
		<g id="Vector_2">
			<path class="st0" d="M19.1,19.8c-0.2,0-0.4-0.1-0.5-0.2l-3.3-3.3c-0.3-0.3-0.3-0.8,0-1.1s0.8-0.3,1.1,0l3.3,3.3
				c0.3,0.3,0.3,0.8,0,1.1C19.5,19.7,19.3,19.8,19.1,19.8z"/>
		</g>
	</g>
</g>
</svg>
