<?xml version="1.0" encoding="utf-8"?>
<!-- Generator: Adobe Illustrator 27.2.0, SVG Export Plug-In . SVG Version: 6.00 Build 0)  -->
<svg version="1.1" id="Layer_1" xmlns="http://www.w3.org/2000/svg" xmlns:xlink="http://www.w3.org/1999/xlink" x="0px" y="0px"
	 viewBox="0 0 24 25" style="enable-background:new 0 0 24 25;" xml:space="preserve">
<style type="text/css">
	.st0{fill:#FFC700;}
</style>
<g id="Group_16414">
	<g id="Group">
		<g id="Vector">
			<path class="st0" d="M7.7,21.5c-0.7,0.4-1.6,0.1-2-0.6c-0.2-0.3-0.2-0.6-0.1-1l0.8-4.6L3,12c-0.6-0.6-0.6-1.5-0.1-2.1
				c0.2-0.2,0.5-0.4,0.9-0.5l4.7-0.7l2.1-4.3c0.4-0.7,1.3-1,2-0.7c0.3,0.1,0.5,0.4,0.7,0.7l2.1,4.3l4.7,0.7c0.8,0.1,1.4,0.9,1.3,1.7
				c0,0.3-0.2,0.6-0.5,0.9l-3.4,3.3l0.8,4.6c0.1,0.8-0.4,1.6-1.2,1.7c-0.3,0.1-0.7,0-1-0.1L12,19.3L7.7,21.5z"/>
			<path class="st0" d="M17,22.4c-0.4,0-0.7-0.1-1-0.3l-3.9-2l-3.9,2c-1.1,0.6-2.5,0.1-3-1c-0.2-0.4-0.3-0.9-0.2-1.4l0.7-4.2l-3.1-3
				c-0.9-0.9-0.9-2.3-0.1-3.2C2.7,9,3.2,8.7,3.7,8.7L8,8.1l2-3.9c0.6-1.1,1.9-1.6,3-1c0.4,0.2,0.8,0.6,1,1l2,3.9l4.3,0.6
				c0.6,0.1,1.1,0.4,1.5,0.9c0.4,0.5,0.5,1.1,0.4,1.7c-0.1,0.5-0.3,1-0.7,1.3l-3.1,3l0.7,4.2c0.1,0.6,0,1.2-0.4,1.7
				c-0.3,0.5-0.9,0.8-1.5,0.9C17.2,22.4,17.1,22.4,17,22.4z M12,18.5c0.1,0,0.2,0,0.3,0.1l4.3,2.2c0.2,0.1,0.3,0.1,0.5,0.1
				c0.2,0,0.4-0.1,0.5-0.3s0.2-0.4,0.1-0.6l-0.8-4.6c0-0.2,0-0.5,0.2-0.7l3.4-3.3c0.1-0.1,0.2-0.3,0.2-0.4c0-0.2,0-0.4-0.1-0.6
				c-0.1-0.2-0.3-0.3-0.5-0.3l-4.7-0.7c-0.2,0-0.5-0.2-0.6-0.4l-2.1-4.3c-0.1-0.1-0.2-0.3-0.3-0.3c-0.4-0.2-0.8,0-1,0.3L9.2,9.1
				C9.1,9.3,8.9,9.4,8.6,9.5l-4.7,0.7c-0.2,0-0.3,0.1-0.4,0.2c-0.3,0.3-0.3,0.8,0,1.1l3.4,3.3c0.2,0.2,0.3,0.4,0.2,0.7L6.3,20
				c0,0.2,0,0.3,0.1,0.5c0.2,0.4,0.6,0.5,1,0.3c0,0,0,0,0,0l4.3-2.2C11.8,18.6,11.9,18.5,12,18.5z"/>
		</g>
	</g>
</g>
</svg>
