<?xml version="1.0" encoding="utf-8"?>
<!-- Generator: Adobe Illustrator 27.2.0, SVG Export Plug-In . SVG Version: 6.00 Build 0)  -->
<svg version="1.1" id="Layer_1" xmlns="http://www.w3.org/2000/svg" xmlns:xlink="http://www.w3.org/1999/xlink" x="0px" y="0px"
	 viewBox="0 0 25 24" style="enable-background:new 0 0 25 24;" xml:space="preserve">
<style type="text/css">
	.st0{fill:#323232;}
</style>
<g id="Group_16433">
	<g id="Group">
		<g id="Vector">
			<path class="st0" d="M22.2,15.2V18c0,0.6-0.4,1-1,1h-18c-0.6,0-1-0.4-1-1v-2.8c0-0.1,0.1-0.3,0.2-0.3c1.1-0.5,1.8-1.7,1.8-2.9
				S3.5,9.7,2.4,9.1C2.3,9,2.2,8.9,2.2,8.8V6c0-0.6,0.4-1,1-1h18c0.6,0,1,0.4,1,1v2.8c0,0.1-0.1,0.3-0.2,0.3l0,0
				c-1.1,0.6-1.7,1.7-1.7,2.9c0,1.2,0.7,2.3,1.8,2.9C22.2,15,22.2,15.1,22.2,15.2z"/>
			<path class="st0" d="M21.2,19.8h-18c-1,0-1.8-0.8-1.8-1.8v-2.8c0-0.4,0.2-0.8,0.6-1C3,13.8,3.5,12.9,3.5,12S3,10.2,2.1,9.8
				c-0.4-0.2-0.6-0.6-0.6-1V6c0-1,0.8-1.8,1.8-1.8h18C22.2,4.2,23,5,23,6v2.8c0,0.4-0.2,0.8-0.6,1C21.5,10.2,21,11.1,21,12
				c0,0.9,0.5,1.8,1.4,2.2c0.4,0.2,0.6,0.6,0.6,1V18C23,19,22.2,19.8,21.2,19.8z M3,15.5V18c0,0.1,0.1,0.2,0.2,0.2h18
				c0.1,0,0.2-0.1,0.2-0.2v-2.5c-1.2-0.7-2-2-2-3.5c0-1.4,0.8-2.7,2-3.5V6c0-0.1-0.1-0.2-0.2-0.2h-18C3.1,5.8,3,5.9,3,6v2.5
				c1.2,0.7,2,2,2,3.5C5,13.4,4.2,14.7,3,15.5z M21.6,8.5C21.6,8.5,21.6,8.5,21.6,8.5C21.6,8.5,21.6,8.5,21.6,8.5z"/>
		</g>
	</g>
</g>
</svg>
