<?xml version="1.0" encoding="utf-8"?>
<!-- Generator: Adobe Illustrator 27.2.0, SVG Export Plug-In . SVG Version: 6.00 Build 0)  -->
<svg version="1.1" id="Layer_1" xmlns="http://www.w3.org/2000/svg" xmlns:xlink="http://www.w3.org/1999/xlink" x="0px" y="0px"
	 viewBox="0 0 15 15" style="enable-background:new 0 0 15 15;" xml:space="preserve">
<style type="text/css">
	.st0{fill:#A1AEB6;}
</style>
<g id="Group_16417">
	<g id="Group">
		<g id="Vector">
			<path class="st0" d="M7.5,13.4c-0.7,0-1.5-0.1-2.2-0.4c-1.4-0.6-2.5-1.7-3.1-3.1C1,6.9,2.4,3.6,5.3,2.4l0,0
				c2.9-1.2,6.3,0.2,7.5,3.1c1.2,2.9-0.2,6.3-3.1,7.5C9,13.3,8.3,13.4,7.5,13.4z M5.7,3.3c-2.4,1-3.6,3.8-2.6,6.2
				c0.5,1.2,1.4,2.1,2.6,2.6c1.2,0.5,2.5,0.5,3.6,0c2.4-1,3.6-3.8,2.6-6.2C10.9,3.4,8.1,2.3,5.7,3.3L5.7,3.3z"/>
		</g>
		<g id="Vector_2">
			<path class="st0" d="M9.5,9.8c-0.1,0-0.2,0-0.3-0.1L7.1,8.5C7,8.4,6.9,8.2,6.9,8V5.3c0-0.3,0.2-0.5,0.5-0.5s0.5,0.2,0.5,0.5v2.4
				l1.9,1.2c0.2,0.1,0.3,0.5,0.2,0.7C9.8,9.8,9.7,9.8,9.5,9.8z"/>
		</g>
	</g>
</g>
</svg>
