<?xml version="1.0" encoding="utf-8"?>
<!-- Generator: Adobe Illustrator 27.2.0, SVG Export Plug-In . SVG Version: 6.00 Build 0)  -->
<svg version="1.1" id="Layer_1" xmlns="http://www.w3.org/2000/svg" xmlns:xlink="http://www.w3.org/1999/xlink" x="0px" y="0px"
	 viewBox="0 0 24 25" style="enable-background:new 0 0 24 25;" xml:space="preserve">
<style type="text/css">
	.st0{fill:#272C2F;}
</style>
<g id="Group">
	<g id="Oval">
		<path class="st0" d="M12,22.9c-5.9,0-10.8-4.8-10.8-10.8S6.1,1.4,12,1.4s10.8,4.8,10.8,10.8S17.9,22.9,12,22.9z M12,2.9
			c-5.1,0-9.2,4.1-9.2,9.2s4.1,9.2,9.2,9.2s9.2-4.1,9.2-9.2S17.1,2.9,12,2.9z"/>
	</g>
	<g id="Shape">
		<path class="st0" d="M18,10.9c0-0.4-0.3-0.8-0.8-0.8s-0.8,0.3-0.8,0.8H18z M7.1,15.2c-0.2-0.3-0.7-0.4-1-0.2
			c-0.3,0.2-0.4,0.7-0.2,1L7.1,15.2z M6.4,14.9C6,15,5.7,15.4,5.8,15.8c0.1,0.4,0.4,0.7,0.9,0.6L6.4,14.9z M8.3,15.1l0.2,0.7
			C8.8,15.7,9,15.5,9,15.3c0.1-0.3,0-0.5-0.2-0.7L8.3,15.1z M7.7,7.9l0.7-0.4C8.2,7.3,8,7.2,7.7,7.1c-0.3,0-0.5,0.1-0.7,0.3L7.7,7.9
			z M11.3,10.9l-0.2,0.7c0.2,0.1,0.5,0,0.6-0.1c0.2-0.1,0.3-0.3,0.3-0.6L11.3,10.9z M16.7,9.1l-0.6,0.4c0.1,0.2,0.4,0.3,0.6,0.3V9.1
			z M18.5,9.1l0.6,0.4c0.2-0.2,0.2-0.5,0-0.8c-0.1-0.2-0.4-0.4-0.7-0.4V9.1z M16.7,10.5c-0.2,0.3-0.1,0.8,0.2,1
			c0.3,0.2,0.8,0.1,1-0.2L16.7,10.5z M16.5,10.9c0,2-0.6,3.6-1.5,4.7c-1,1.1-2.4,1.8-4.3,1.8v1.5c2.3,0,4.2-0.8,5.4-2.3
			c1.3-1.4,1.9-3.4,1.9-5.7H16.5z M10.7,17.3c-1.1,0-1.7-0.3-2.3-0.6c-0.5-0.4-0.9-0.9-1.3-1.5l-1.2,0.9c0.4,0.6,0.9,1.3,1.7,1.8
			c0.8,0.6,1.8,0.9,3.1,0.9V17.3z M6.6,16.4C6.6,16.4,6.7,16.4,6.6,16.4C6.7,16.4,6.7,16.4,6.6,16.4C6.7,16.4,6.7,16.4,6.6,16.4
			c0.1,0,0.1,0,0.1,0c0,0,0,0,0,0c0,0,0,0,0.1,0c0.1,0,0.1,0,0.2-0.1c0.2-0.1,0.4-0.1,0.6-0.2c0.2-0.1,0.4-0.1,0.6-0.2
			c0.1,0,0.2-0.1,0.2-0.1c0,0,0,0,0.1,0c0,0,0,0,0,0c0,0,0,0,0,0c0,0,0,0,0,0c0,0,0,0,0,0c0,0,0,0,0,0c0,0,0,0-0.2-0.7
			c-0.2-0.7-0.2-0.7-0.2-0.7c0,0,0,0,0,0c0,0,0,0,0,0c0,0,0,0,0,0c0,0,0,0,0,0c0,0,0,0,0,0c0,0,0,0-0.1,0c0,0-0.1,0-0.2,0.1
			c-0.2,0.1-0.4,0.1-0.6,0.2c-0.2,0.1-0.4,0.1-0.6,0.2c-0.1,0-0.2,0.1-0.2,0.1c0,0,0,0-0.1,0c0,0,0,0,0,0c0,0,0,0,0,0c0,0,0,0,0,0
			c0,0,0,0,0,0c0,0,0,0,0,0c0,0,0,0,0.1,0L6.6,16.4z M8.8,14.6C7.1,12.8,7,10.2,8.3,8.3L7.1,7.4c-1.8,2.5-1.6,5.9,0.7,8.2L8.8,14.6z
			 M7,8.2c0.8,1.5,2.3,3,4.1,3.4l0.4-1.5C10.3,9.9,9,8.8,8.4,7.5L7,8.2z M12,10.9c0-0.7,0.3-1.3,0.6-1.6c0.4-0.4,0.9-0.6,1.6-0.6
			V7.1c-1.1,0-2,0.4-2.7,1.1c-0.7,0.7-1,1.6-1.1,2.6L12,10.9z M14.3,8.6c0.5,0,0.9,0.1,1.1,0.2c0.3,0.1,0.5,0.3,0.7,0.6l1.3-0.8
			c-0.3-0.5-0.7-0.8-1.2-1.1c-0.5-0.3-1.1-0.4-1.8-0.4V8.6z M16.7,9.8h1.8V8.3h-1.8V9.8z M17.9,8.7l-1.2,1.8l1.2,0.8l1.2-1.8
			L17.9,8.7z"/>
	</g>
</g>
</svg>
