<?xml version="1.0" encoding="utf-8"?>
<!-- Generator: Adobe Illustrator 27.2.0, SVG Export Plug-In . SVG Version: 6.00 Build 0)  -->
<svg version="1.1" id="Layer_1" xmlns="http://www.w3.org/2000/svg" xmlns:xlink="http://www.w3.org/1999/xlink" x="0px" y="0px"
	 viewBox="0 0 174 176" style="enable-background:new 0 0 174 176;" xml:space="preserve">
<style type="text/css">
	.st0{fill-rule:evenodd;clip-rule:evenodd;fill:#DCE2E6;}
</style>
<path id="Union" class="st0" d="M143.5,165.2l-36-37l-4,2.1c-25.3,13.5-57.4,9.3-78.3-12.3C-0.2,91.9,0.4,50.1,26.5,24.7
	C52.6-0.7,94.4-0.1,119.8,26c21,21.6,24.2,53.9,10,78.8l-2.2,3.9l36,37c5.4,5.5,5.3,14.4-0.3,19.8
	C157.7,170.8,148.8,170.7,143.5,165.2z M124.1,21.8c22.9,23.6,26.4,58.8,10.9,85.9l32.8,33.7c7.7,7.9,7.5,20.6-0.4,28.3
	c-7.9,7.7-20.6,7.5-28.3-0.4l-32.8-33.8c-27.6,14.7-62.6,10.1-85.4-13.4C-6.8,93.7-6.2,48.1,22.3,20.4C50.8-7.3,96.4-6.7,124.1,21.8
	z M48.6,78.5c0.2-0.2,0.4-0.4,0.6-0.6l0.1,0l0.1-0.1c0.1-0.1,0.3-0.2,0.6-0.4c0.5-0.4,1.2-0.9,2.1-1.5c1.8-1.2,4.3-2.8,7.2-4.4
	c5.7-3.1,13.4-6.6,20.3-6.6c6.9,0,14.6,3.5,20.3,6.6c2.9,1.6,5.4,3.2,7.2,4.4c0.9,0.6,1.6,1.1,2.1,1.5c0.2,0.2,0.4,0.3,0.6,0.4
	c0.1,0,0.1,0.1,0.2,0.1c0.2,0.2,0.4,0.4,0.6,0.6c1,1.3,0.8,3.2-0.6,4.2l-1.8-2.4c1.8,2.4,1.8,2.4,1.8,2.4l0,0l0,0l0,0
	c0,0-0.1,0.1-0.2,0.1c-0.1,0.1-0.3,0.2-0.6,0.4c-0.5,0.4-1.2,0.9-2.1,1.5c-1.8,1.2-4.3,2.8-7.2,4.4c-5.7,3.1-13.4,6.6-20.3,6.6
	c-6.9,0-14.6-3.5-20.3-6.6c-2.9-1.6-5.4-3.2-7.2-4.4c-0.9-0.6-1.6-1.1-2.1-1.5c-0.2-0.2-0.4-0.3-0.6-0.4c0,0-0.1-0.1-0.1-0.1l0,0
	l0,0l0,0l0,0c0,0,0,0,1.8-2.4l-1.8,2.4C47.8,81.7,47.5,79.8,48.6,78.5z M62.1,83.9c-2.3-1.3-4.3-2.6-5.9-3.6
	c1.6-1.1,3.6-2.3,5.9-3.6c4.8-2.7,10.3-5.1,15.1-5.7c0.3,1.2,0.4,2.5,0.2,3.8c-0.7,6-6.1,10.4-12.2,9.7c-0.9-0.1-2-0.2-3-0.5
	C62.3,84,62.2,84,62.1,83.9z M73.8,89c2,0.5,3.8,0.8,5.6,0.8c5.3,0,11.8-2.8,17.3-5.9c2.3-1.3,4.3-2.6,5.9-3.6
	c-1.6-1.1-3.6-2.3-5.9-3.6c-4.2-2.4-9-4.5-13.4-5.4c0.2,1.4,0.2,2.8,0,4.2C82.8,81.6,79,86.5,73.8,89z M104,103.8
	c-15.6,15.2-39.5,16.6-56.7,4.6L46.2,78c-0.2-4,0.2-8,0.9-12c1.7-8.5,5.5-16.4,11.2-23l13.5-15.8c12-0.3,24.1,4.2,33.2,13.5
	C122.1,58.3,121.7,86.6,104,103.8z M40.9,102.9c0.1,0.1,0.2,0.2,0.2,0.2l-1-24.9c-0.2-4.5,0.2-9,1.1-13.4
	c1.9-9.5,6.2-18.4,12.5-25.7l9.2-10.8c-7.7,1.8-15,5.6-21.1,11.5C24.1,57,23.7,85.2,40.9,102.9z M108.2,108.1
	c-20,19.5-52.1,19-71.6-1c-19.5-20-19-52.1,1-71.6c20-19.5,52.1-19,71.6,1C128.7,56.5,128.3,88.6,108.2,108.1z"/>
</svg>
