<?xml version="1.0" encoding="utf-8"?>
<!-- Generator: Adobe Illustrator 27.2.0, SVG Export Plug-In . SVG Version: 6.00 Build 0)  -->
<svg version="1.1" id="Layer_1" xmlns="http://www.w3.org/2000/svg" xmlns:xlink="http://www.w3.org/1999/xlink" x="0px" y="0px"
	 viewBox="0 0 45 44" style="enable-background:new 0 0 45 44;" xml:space="preserve">
<style type="text/css">
	.st0{fill:#DCE2E6;}
</style>
<g id="Group_16426">
	<g id="Group">
		<g id="Vector">
			<path class="st0" d="M22.3,23.7c-2.3,0-4.4-0.9-6-2.5c-1.6-1.6-2.5-3.8-2.5-6s0.9-4.4,2.5-6s3.8-2.5,6-2.5s4.4,0.9,6,2.5l0,0
				c1.6,1.6,2.5,3.8,2.5,6s-0.9,4.4-2.5,6C26.8,22.8,24.6,23.7,22.3,23.7z M22.3,8.1c-1.9,0-3.6,0.7-5,2.1c-1.3,1.3-2.1,3.1-2.1,5
				s0.7,3.6,2.1,5s3.1,2.1,5,2.1c1.9,0,3.6-0.7,5-2.1s2.1-3.1,2.1-5s-0.7-3.6-2.1-5l0,0C26,8.8,24.2,8.1,22.3,8.1z"/>
		</g>
		<g id="Vector_2">
			<path class="st0" d="M7.7,37.4c-0.4,0-0.8-0.3-0.8-0.8c0-5,4-9,9-9h4.7c0.4,0,0.8,0.3,0.8,0.8s-0.3,0.8-0.8,0.8h-4.7
				c-4.1,0-7.5,3.4-7.5,7.5C8.4,37.1,8.1,37.4,7.7,37.4z"/>
		</g>
		<g id="Vector_3">
			<path class="st0" d="M30.2,39.2H26c-0.2,0-0.4-0.1-0.5-0.2s-0.2-0.3-0.2-0.5l0-4.2c0-0.2,0.1-0.4,0.2-0.5l6.3-6.3
				c1-1,2.7-1,3.7,0l1.6,1.6c0.5,0.5,0.8,1.1,0.8,1.8c0,0.7-0.3,1.3-0.8,1.8L30.7,39C30.6,39.2,30.4,39.2,30.2,39.2z M26.7,37.8h3.1
				l6.1-6.1c0.2-0.2,0.3-0.5,0.3-0.8c0-0.3-0.1-0.6-0.3-0.8l-1.6-1.6c-0.4-0.4-1.1-0.4-1.5,0l-6.1,6.1L26.7,37.8z"/>
		</g>
	</g>
</g>
</svg>
