<?xml version="1.0" encoding="utf-8"?>
<!-- Generator: Adobe Illustrator 27.2.0, SVG Export Plug-In . SVG Version: 6.00 Build 0)  -->
<svg version="1.1" id="Layer_1" xmlns="http://www.w3.org/2000/svg" xmlns:xlink="http://www.w3.org/1999/xlink" x="0px" y="0px"
	 viewBox="0 0 45 44" style="enable-background:new 0 0 45 44;" xml:space="preserve">
<style type="text/css">
	.st0{fill:#DCE2E6;}
</style>
<g id="Group_16427">
	<g id="Group">
		<g id="Vector">
			<path class="st0" d="M22.7,39.6c-1.1,0-2.3-0.4-3.1-1.3L6.4,25.1c-1.7-1.7-1.7-4.5,0-6.2L19.5,5.7c1.7-1.7,4.5-1.7,6.2,0
				l13.1,13.1c1.7,1.7,1.7,4.5,0,6.2L25.8,38.3C24.9,39.1,23.8,39.6,22.7,39.6z M22.7,5.9c-0.7,0-1.5,0.3-2.1,0.9L7.5,19.9
				c-1.1,1.1-1.1,3,0,4.1l13.1,13.1l0,0c1.1,1.1,3,1.1,4.1,0l13.1-13.1c1.1-1.1,1.1-3,0-4.1L24.7,6.8C24.2,6.2,23.4,5.9,22.7,5.9z"
				/>
		</g>
		<g id="Vector_2">
			<path class="st0" d="M18.1,26.8c-0.4,0-0.8-0.3-0.8-0.8v-3.9c0-1.5,1.2-2.7,2.7-2.7h8.1c0.4,0,0.8,0.3,0.8,0.8s-0.3,0.8-0.8,0.8
				H20c-0.7,0-1.2,0.5-1.2,1.2V26C18.8,26.5,18.5,26.8,18.1,26.8z"/>
		</g>
		<g id="Vector_3">
			<path class="st0" d="M25.4,23.7c-0.2,0-0.4-0.1-0.5-0.2c-0.3-0.3-0.3-0.8,0-1.1l2.2-2.2l-2.2-2.2c-0.3-0.3-0.3-0.8,0-1.1
				s0.8-0.3,1.1,0l2.8,2.8c0.3,0.3,0.3,0.8,0,1.1l-2.8,2.8C25.8,23.6,25.6,23.7,25.4,23.7z"/>
		</g>
	</g>
</g>
</svg>
