<?xml version="1.0" encoding="utf-8"?>
<!-- Generator: Adobe Illustrator 27.2.0, SVG Export Plug-In . SVG Version: 6.00 Build 0)  -->
<svg version="1.1" id="Layer_1" xmlns="http://www.w3.org/2000/svg" xmlns:xlink="http://www.w3.org/1999/xlink" x="0px" y="0px"
	 viewBox="0 0 24 24" style="enable-background:new 0 0 24 24;" xml:space="preserve">
<style type="text/css">
	.st0{fill:#A1AEB6;}
</style>
<g id="Group_16409">
	<g id="Group">
		<g id="Vector">
			<path class="st0" d="M12,22.8c-0.4,0-0.8-0.3-0.8-0.8v-1.2c0-1.2,0.5-2.4,1.3-3.2c0.3-0.3,0.8-0.3,1.1,0c0.3,0.3,0.3,0.8,0,1.1
				c-0.6,0.6-0.9,1.3-0.9,2.2V22C12.8,22.4,12.4,22.8,12,22.8z"/>
		</g>
		<g id="Vector_2">
			<path class="st0" d="M12,22.8c-0.4,0-0.8-0.3-0.8-0.8v-1.2c0-0.8-0.3-1.6-0.9-2.2c-0.3-0.3-0.3-0.8,0-1.1c0.3-0.3,0.8-0.3,1.1,0
				c0.9,0.9,1.3,2,1.3,3.2V22C12.7,22.4,12.4,22.8,12,22.8z"/>
		</g>
		<g id="Vector_3">
			<path class="st0" d="M12,13.9c-1.9,0-3.7-0.4-5.5-1.1c-0.4-0.2-0.6-0.6-0.4-1s0.6-0.6,1-0.4c3.2,1.3,6.7,1.3,9.9,0
				c0.4-0.2,0.8,0,1,0.4c0.2,0.4,0,0.8-0.4,1C15.7,13.5,13.9,13.9,12,13.9z"/>
		</g>
		<g id="Ellipse">
			<circle class="st0" cx="12" cy="9.8" r="0.8"/>
		</g>
		<g id="Vector_4">
			<path class="st0" d="M17.6,22.7c-0.1,0-0.2,0-0.3-0.1c-0.4-0.2-0.5-0.6-0.4-1l0.1-0.2c1.3-2.8,1.2-6-0.2-8.8
				c-1.4-2.9-1.6-6.3-0.5-9.3l0.6-1.7c0.1-0.4,0.6-0.6,1-0.5c0.4,0.1,0.6,0.6,0.5,1l-0.6,1.7c-1,2.6-0.8,5.6,0.5,8.1
				c1.6,3.2,1.7,6.8,0.2,10l-0.1,0.2C18.1,22.6,17.8,22.7,17.6,22.7z"/>
		</g>
		<g id="Vector_5">
			<path class="st0" d="M6.4,22.7c-0.3,0-0.6-0.2-0.7-0.4l-0.1-0.2c-1.4-3.2-1.3-6.9,0.2-10c1.3-2.5,1.4-5.5,0.5-8.1L5.7,2.3
				c-0.1-0.4,0.1-0.8,0.4-1c0.4-0.1,0.8,0.1,1,0.4l0.6,1.7c1.1,3,0.9,6.4-0.5,9.3c-1.4,2.8-1.4,5.9-0.2,8.8l0.1,0.3
				c0.2,0.4,0,0.8-0.4,1C6.6,22.7,6.5,22.7,6.4,22.7z"/>
		</g>
		<g id="Vector_6">
			<path class="st0" d="M16.5,6.1h-9c-0.4,0-0.8-0.3-0.8-0.8s0.3-0.8,0.8-0.8h9c0.4,0,0.8,0.3,0.8,0.8S16.9,6.1,16.5,6.1z"/>
		</g>
	</g>
</g>
</svg>
