<?xml version="1.0" encoding="utf-8"?>
<!-- Generator: Adobe Illustrator 27.2.0, SVG Export Plug-In . SVG Version: 6.00 Build 0)  -->
<svg version="1.1" id="Layer_1" xmlns="http://www.w3.org/2000/svg" xmlns:xlink="http://www.w3.org/1999/xlink" x="0px" y="0px"
	 viewBox="0 0 24 25" style="enable-background:new 0 0 24 25;" xml:space="preserve">
<style type="text/css">
	.st0{fill:#A1AEB6;}
</style>
<g id="Group_12968">
	<g id="Group">
		<g id="Path">
			<path class="st0" d="M12,21.3c-0.7,0-6.4,0-8-0.5c-1.1-0.4-2-1.4-2.3-2.6c-0.4-1.9-0.4-5.6-0.4-5.8s0-3.9,0.4-5.8
				C2,5.3,2.8,4.3,4,3.9c1.6-0.5,7.4-0.5,8-0.5c0.7,0,6.4,0,8,0.5c1.1,0.4,2,1.4,2.3,2.6l0,0c0.4,1.9,0.4,5.6,0.4,5.8s0,3.9-0.4,5.8
				c-0.3,1.3-1.2,2.3-2.3,2.6C18.4,21.3,12.7,21.3,12,21.3z M12,4.9c-1.7,0-6.4,0.1-7.6,0.5C3.8,5.5,3.3,6.1,3.1,6.9
				c-0.4,1.7-0.4,5.4-0.4,5.5s0,3.7,0.4,5.5c0.2,0.7,0.7,1.3,1.3,1.5c1.2,0.4,5.9,0.5,7.6,0.5c1.7,0,6.4-0.1,7.6-0.5
				c0.6-0.2,1.1-0.8,1.3-1.5c0.4-1.7,0.4-5.4,0.4-5.5s0-3.7-0.4-5.5v0c-0.2-0.7-0.7-1.3-1.3-1.5C18.4,5,13.7,4.9,12,4.9z"/>
		</g>
		<g id="Path_2">
			<path class="st0" d="M10,16.1c-0.1,0-0.3,0-0.4-0.1c-0.2-0.1-0.4-0.4-0.4-0.6v-6c0-0.3,0.1-0.5,0.4-0.6c0.2-0.1,0.5-0.1,0.8,0
				l5.2,3c0.2,0.1,0.4,0.4,0.4,0.6s-0.1,0.5-0.4,0.6l-5.2,3C10.3,16.1,10.1,16.1,10,16.1z M10.8,10.6V14l2.9-1.7L10.8,10.6z"/>
		</g>
	</g>
</g>
</svg>
