<svg width="597" height="177" viewBox="0 0 597 177" fill="none" xmlns="http://www.w3.org/2000/svg">
<g clip-path="url(#clip0_2_4)">
<path d="M381 177H449.146L495.394 38.5163L528.854 88.5875L469.993 177H537.963L597 88.5875L537.963 0H440.036L381 177Z" fill="#FE8C36"/>
<path d="M98.872 81.192C100.237 81.192 101.133 82.1733 101.56 84.136C102.072 86.0987 102.328 89.0853 102.328 93.096C102.328 97.192 102.072 100.221 101.56 102.184C101.048 104.061 100.152 105 98.872 105C96.312 105 93.88 104.531 91.576 103.592C90.3813 111.699 87.9067 118.653 84.152 124.456C74.8507 126.675 66.3173 127.784 58.552 127.784C47.8 127.784 39.352 125.48 33.208 120.872C27.1493 116.264 24.12 109.096 24.12 99.368C24.12 89.7253 26.7653 78.248 32.056 64.936L49.72 70.696C46.648 79.656 45.112 86.4827 45.112 91.176C45.112 95.4427 46.3067 98.6853 48.696 100.904C51.1707 103.037 55.096 104.104 60.472 104.104C64.1413 104.104 68.2373 103.635 72.76 102.696C72.76 94.4187 72.3333 83.5813 71.48 70.184C70.6267 56.7867 69.6453 44.6267 68.536 33.704L89.144 32.552C89.8267 41.1707 90.68 57.0427 91.704 80.168C94.008 80.8507 96.3973 81.192 98.872 81.192ZM135.355 61.224C136.976 66.344 137.787 71.8907 137.787 77.864C137.787 82.3867 137.318 86.7387 136.379 90.92C135.44 95.1013 134.118 98.5573 132.411 101.288C128.827 102.312 124.091 103.208 118.203 103.976C112.315 104.659 105.872 105 98.875 105C97.595 105 96.699 104.061 96.187 102.184C95.675 100.221 95.419 97.192 95.419 93.096C95.419 89.0853 95.675 86.0987 96.187 84.136C96.6137 82.1733 97.5097 81.192 98.875 81.192C108.006 81.192 114.747 80.68 119.099 79.656C118.416 76.7547 117.563 73.896 116.539 71.08C115.6 68.264 115.046 66.5573 114.875 65.96L135.355 61.224ZM134.971 122.024C135.142 123.304 134.203 125.395 132.155 128.296C130.107 131.197 128.358 133.117 126.907 134.056C125.456 133.459 123.494 132.307 121.019 130.6C118.544 128.979 116.624 127.485 115.259 126.12C114.406 127.656 113.296 129.192 111.931 130.728C110.566 132.349 109.456 133.459 108.603 134.056C106.982 133.373 104.806 132.093 102.075 130.216C99.4297 128.339 97.5523 126.76 96.443 125.48C96.955 123.688 98.235 121.299 100.283 118.312C102.331 115.411 104.038 113.96 105.403 113.96C106.683 113.96 108.688 114.899 111.419 116.776C114.15 118.653 115.856 120.232 116.539 121.512C117.648 119.549 118.843 117.8 120.123 116.264C121.488 114.728 122.683 113.96 123.707 113.96C125.072 113.96 127.206 114.984 130.107 117.032C133.094 119.165 134.715 120.829 134.971 122.024ZM116.155 132.136C117.008 132.051 118.288 132.477 119.995 133.416C121.702 134.355 123.28 135.464 124.731 136.744C126.182 138.024 126.992 139.091 127.163 139.944C127.334 141.053 126.438 143.016 124.475 145.832C122.512 148.648 120.848 150.483 119.483 151.336C117.947 150.653 115.899 149.416 113.339 147.624C110.779 145.917 108.987 144.467 107.963 143.272C108.219 141.651 109.286 139.432 111.163 136.616C113.126 133.885 114.79 132.392 116.155 132.136ZM233.707 81.192C235.072 81.192 235.968 82.1733 236.395 84.136C236.907 86.0987 237.163 89.0853 237.163 93.096C237.163 97.192 236.907 100.221 236.395 102.184C235.883 104.061 234.987 105 233.707 105C228.075 105 223.296 103.251 219.371 99.752L217.963 100.776C215.659 102.397 212.715 103.549 209.131 104.232C205.547 104.915 200.982 105.256 195.435 105.256C192.192 105.256 188.566 105.128 184.555 104.872C184.726 110.931 185.195 116.989 185.963 123.048C186.816 129.107 187.798 134.269 188.907 138.536C187.03 139.56 184.086 140.371 180.075 140.968C176.15 141.651 172.352 141.992 168.683 141.992L168.043 141.48C165.824 131.069 164.715 120.232 164.715 108.968C164.715 104.445 164.886 100.52 165.227 97.192C165.824 94.2907 167.36 91.1333 169.835 87.72C172.31 84.3067 174.784 82.216 177.259 81.448L182.379 81.704C182.294 81.192 182.251 80.424 182.251 79.4C182.251 75.9013 183.104 72.4027 184.811 68.904C186.603 65.32 189.248 62.3333 192.747 59.944C196.246 57.5547 200.47 56.36 205.419 56.36C209.942 56.36 213.696 57.5973 216.683 60.072C219.67 62.5467 221.846 66.0027 223.211 70.44V70.568L223.467 71.336C224.576 74.92 225.856 77.48 227.307 79.016C228.843 80.4667 230.976 81.192 233.707 81.192ZM194.283 82.344C196.843 82.7707 199.616 82.984 202.603 82.984C205.504 82.984 208.107 82.7707 210.411 82.344C212.8 81.9173 214.208 81.4053 214.635 80.808C214.379 79.6987 213.44 78.7173 211.819 77.864C210.283 76.9253 208.278 76.456 205.803 76.456C203.414 76.456 201.067 76.8827 198.763 77.736C196.544 78.5893 195.051 80.1253 194.283 82.344ZM283.798 81.192C285.163 81.192 286.059 82.1733 286.486 84.136C286.998 86.0987 287.254 89.0853 287.254 93.096C287.254 97.192 286.998 100.221 286.486 102.184C285.974 104.061 285.078 105 283.798 105C275.094 105 268.481 102.013 263.958 96.04H262.806C261.014 98.6 258.497 100.52 255.254 101.8C252.097 103.08 248.982 103.933 245.91 104.36C242.838 104.787 238.785 105 233.75 105C232.47 105 231.574 104.061 231.062 102.184C230.55 100.221 230.294 97.192 230.294 93.096C230.294 89.0853 230.55 86.0987 231.062 84.136C231.489 82.1733 232.385 81.192 233.75 81.192C238.443 81.192 242.369 80.8933 245.526 80.296C248.683 79.6987 251.542 78.4187 254.102 76.456C256.662 74.4933 258.753 71.5493 260.374 67.624L271.126 69.288C271.041 69.9707 270.998 70.9093 270.998 72.104C270.998 75.688 271.937 78.12 273.814 79.4C275.691 80.5947 279.019 81.192 283.798 81.192ZM272.278 122.024C272.449 123.304 271.51 125.395 269.462 128.296C267.414 131.197 265.665 133.16 264.214 134.184C262.593 133.501 260.545 132.307 258.07 130.6C255.595 128.979 253.761 127.485 252.566 126.12C251.713 127.656 250.603 129.235 249.238 130.856C247.873 132.477 246.763 133.587 245.91 134.184C244.203 133.416 242.027 132.093 239.382 130.216C236.737 128.424 234.859 126.888 233.75 125.608C234.262 123.816 235.542 121.427 237.59 118.44C239.638 115.453 241.345 113.96 242.71 113.96C244.075 113.96 246.123 114.899 248.854 116.776C251.585 118.739 253.249 120.36 253.846 121.64C255.041 119.507 256.278 117.672 257.558 116.136C258.838 114.685 259.99 113.96 261.014 113.96C262.379 113.96 264.513 114.984 267.414 117.032C270.401 119.165 272.022 120.829 272.278 122.024ZM321.382 55.976C328.55 60.584 333.969 63.9973 337.638 66.216C341.307 68.3493 343.91 69.416 345.446 69.416C345.19 74.28 344.635 78.4187 343.782 81.832C343.014 85.16 341.691 89 339.814 93.352C337.595 93.1813 335.974 93.096 334.95 93.096C329.915 93.096 324.369 94.1627 318.31 96.296C316.006 97.1493 313.873 97.96 311.91 98.728C306.705 100.776 302.054 102.355 297.958 103.464C293.862 104.488 289.126 105 283.75 105C282.47 105 281.574 104.061 281.062 102.184C280.55 100.221 280.294 97.192 280.294 93.096C280.294 89.0853 280.55 86.0987 281.062 84.136C281.489 82.1733 282.385 81.192 283.75 81.192C288.358 81.192 292.283 80.8933 295.526 80.296C298.854 79.6987 303.206 78.76 308.582 77.48L311.782 76.712L319.718 74.92C316.475 73.128 313.745 71.8053 311.526 70.952C309.137 70.0133 306.577 69.3733 303.846 69.032C301.115 68.6053 297.574 68.264 293.222 68.008L290.406 67.88L289.894 67.368C290.235 64.1253 290.875 60.5413 291.814 56.616C292.838 52.6053 293.819 49.6613 294.758 47.784C296.55 47.528 298.214 47.4 299.75 47.4C302.907 47.4 305.851 47.912 308.582 48.936C311.313 49.8747 314.086 51.24 316.902 53.032L321.382 55.976ZM318.054 131.752C316.262 131.069 313.915 129.704 311.014 127.656C308.113 125.693 306.107 123.987 304.998 122.536C305.254 121.427 305.894 119.891 306.918 117.928C308.027 116.051 309.265 114.301 310.63 112.68C311.995 111.144 313.19 110.291 314.214 110.12C315.153 109.949 316.561 110.376 318.438 111.4C320.401 112.424 322.193 113.661 323.814 115.112C325.521 116.648 326.459 117.843 326.63 118.696C326.971 119.976 325.99 122.195 323.686 125.352C321.467 128.595 319.59 130.728 318.054 131.752Z" fill="#FE8C36"/>
</g>
<defs>
<clipPath id="clip0_2_4">
<rect width="597" height="177" fill="white"/>
</clipPath>
</defs>
</svg>
