<svg width="136" height="22" viewBox="0 0 136 22" fill="none" xmlns="http://www.w3.org/2000/svg">
<path d="M9.7934 21.95C7.9734 21.95 6.3534 21.61 4.9334 20.93C3.5334 20.25 2.4334 19.28 1.6334 18.02C0.833399 16.76 0.433399 15.27 0.433399 13.55C0.433399 12.77 0.523399 11.93 0.703399 11.03C1.1834 8.81 2.0634 6.88 3.3434 5.24C4.6434 3.58 6.2434 2.31 8.1434 1.43C10.0634 0.529999 12.1634 0.0799986 14.4434 0.0799986C15.9634 0.0799986 17.2734 0.229998 18.3734 0.529998C19.4934 0.809998 20.4834 1.27 21.3434 1.91L20.2934 6.95C19.5734 6.25 18.6834 5.75 17.6234 5.45C16.5834 5.13 15.3434 4.97 13.9034 4.97C11.8234 4.97 10.1134 5.51 8.7734 6.59C7.4334 7.65 6.5634 9.13 6.1634 11.03C6.0034 11.79 5.9234 12.46 5.9234 13.04C5.9234 15.8 7.6234 17.18 11.0234 17.18C12.0834 17.18 13.0134 17 13.8134 16.64L14.5334 13.28H11.3234L12.1034 9.56H20.3534L18.1334 20C15.7134 21.3 12.9334 21.95 9.7934 21.95ZM27.4151 13.52L22.4351 0.529998H27.9251L30.9251 8.66L37.6151 0.529998H43.4351L32.7251 13.52L31.0451 21.5H25.7351L27.4151 13.52ZM44.4804 0.529998H49.4304L52.7304 13.52L61.5804 0.529998H66.8004L62.3604 21.5H57.4104L59.6304 10.97L52.4004 21.5H50.0004L47.2404 10.97L45.0204 21.5H40.0404L44.4804 0.529998ZM69.5 0.529998H78.74C80.72 0.529998 82.32 1.03 83.54 2.03C84.78 3.03 85.4 4.42 85.4 6.2C85.4 6.7 85.34 7.24 85.22 7.82C84.72 10.22 83.65 12.06 82.01 13.34C80.39 14.6 78.26 15.23 75.62 15.23H71.69L70.37 21.5H65.06L69.5 0.529998ZM75.74 10.76C76.94 10.76 77.85 10.55 78.47 10.13C79.09 9.71 79.52 8.94 79.76 7.82C79.84 7.38 79.88 7.09 79.88 6.95C79.88 6.23 79.62 5.73 79.1 5.45C78.58 5.15 77.86 5 76.94 5H73.85L72.65 10.76H75.74ZM93.3839 0.529998H98.6039L102.534 21.5H97.2539L96.4739 17.18H88.7339L86.1539 21.5H80.5439L93.3839 0.529998ZM96.0239 13.1L94.9739 6.05L90.8939 13.1H96.0239ZM109.08 0.529998H114.39L110.88 17.03H120L119.07 21.5H104.64L109.08 0.529998ZM125.018 0.529998H130.328L126.818 17.03H135.938L135.008 21.5H120.578L125.018 0.529998Z" fill="#DCE2E6"/>
</svg>
