<svg width="174" height="176" viewBox="0 0 174 176" fill="none" xmlns="http://www.w3.org/2000/svg">
<path id="Union" fill-rule="evenodd" clip-rule="evenodd" d="M143.456 165.172L107.481 128.171L103.502 130.29C78.2314 143.744 46.1356 139.556 25.1853 118.008C-0.224375 91.8738 0.363203 50.0891 26.4977 24.6794C52.6321 -0.730236 94.4169 -0.142656 119.827 25.9918C140.814 47.5782 144.072 79.8556 129.825 104.756L127.581 108.678L163.531 145.654C168.921 151.197 168.796 160.061 163.253 165.451C157.709 170.841 148.846 170.716 143.456 165.172ZM124.128 21.8092C147.031 45.3649 150.573 80.5751 135.033 107.736L167.833 141.471C175.533 149.391 175.355 162.053 167.435 169.753C159.516 177.452 146.854 177.274 139.154 169.355L106.322 135.586C78.7574 150.261 43.7449 145.705 20.8834 122.191C-6.83622 93.6805 -6.19522 48.0972 22.3151 20.3775C50.8254 -7.34208 96.4088 -6.70108 124.128 21.8092ZM48.5521 78.4983C48.7364 78.2567 48.9501 78.0508 49.1845 77.882L49.2413 77.8393L49.3334 77.7706C49.466 77.6719 49.6581 77.5302 49.9046 77.3518C50.3973 76.9949 51.1086 76.4901 51.998 75.8867C53.7739 74.6817 56.2746 73.0732 59.1742 71.461C64.8339 68.3142 72.54 64.8486 79.4377 64.8486C86.3355 64.8486 94.0416 68.3142 99.7012 71.461C102.601 73.0732 105.102 74.6817 106.877 75.8867C107.767 76.4901 108.478 76.9949 108.971 77.3518C109.217 77.5302 109.409 77.6719 109.542 77.7706C109.607 77.8189 109.658 77.857 109.694 77.884C109.927 78.0525 110.14 78.2576 110.323 78.4983C111.328 79.8158 111.074 81.6983 109.757 82.7029L107.938 80.3174C109.757 82.7029 109.756 82.7033 109.756 82.7037L109.75 82.7078L109.738 82.7171L109.696 82.7491C109.66 82.7762 109.608 82.8148 109.542 82.8642C109.409 82.9629 109.217 83.1045 108.971 83.283C108.478 83.6398 107.767 84.1446 106.877 84.7481C105.101 85.9531 102.601 87.5615 99.7012 89.1737C94.0415 92.3205 86.3354 95.7861 79.4377 95.7861C72.5399 95.7861 64.8338 92.3205 59.1742 89.1737C56.2745 87.5615 53.7739 85.9531 51.998 84.7481C51.1086 84.1446 50.3973 83.6398 49.9045 83.283C49.658 83.1045 49.466 82.9629 49.3333 82.8642C49.2883 82.8307 49.2502 82.8022 49.2191 82.7788L49.1796 82.7491L49.1372 82.7171L49.1249 82.7078L49.1196 82.7037C49.119 82.7033 49.1186 82.7029 50.9377 80.3174L49.1186 82.7029C47.8011 81.6983 47.5474 79.8158 48.5521 78.4983ZM62.0898 83.9298C59.7893 82.6507 57.749 81.3689 56.1633 80.3174C57.749 79.2659 59.7893 77.9841 62.0899 76.705C66.8858 74.0384 72.4207 71.6096 77.2234 70.9969C77.5214 72.2169 77.614 73.509 77.4663 74.8297C76.7909 80.8672 71.3491 85.214 65.3116 84.5387C64.3668 84.433 63.3381 84.3034 62.3572 84.0778C62.2678 84.0285 62.1787 83.9792 62.0898 83.9298ZM73.8478 88.9559C75.7982 89.4793 77.6896 89.7861 79.4377 89.7861C84.6884 89.7861 91.2323 87.0174 96.7855 83.9298C99.0861 82.6507 101.126 81.3689 102.712 80.3174C101.126 79.2659 99.0861 77.9841 96.7856 76.705C92.5553 74.3529 87.75 72.1859 83.3795 71.2869C83.5666 72.6529 83.5893 74.064 83.4291 75.4967C82.7515 81.5535 78.9701 86.5093 73.8478 88.9559ZM104.043 103.784C88.4343 118.961 64.5696 120.423 47.3697 108.382L46.1846 77.9638C46.0283 73.9525 46.3471 69.9368 47.1344 66.0004C48.8344 57.5004 52.6771 49.5754 58.2982 42.9767L71.7658 27.1669C83.7834 26.8562 95.89 31.3724 104.931 40.6713C122.114 58.3445 121.717 86.6012 104.043 103.784ZM40.9304 102.897C41.0069 102.976 41.0837 103.054 41.1606 103.132L40.1891 78.1974C40.0144 73.7132 40.3708 69.2241 41.2509 64.8237C43.1513 55.3217 47.447 46.4625 53.7308 39.0859L62.9371 28.2785C55.2325 30.0406 47.8988 33.8716 41.8179 39.7838C24.1446 56.9669 23.7473 85.2236 40.9304 102.897ZM108.226 108.086C88.1769 127.579 56.1216 127.129 36.6285 107.079C17.1354 87.0303 17.5862 54.975 37.6353 35.4819C57.6845 15.9888 89.7398 16.4396 109.233 36.4887C128.726 56.5378 128.275 88.5932 108.226 108.086Z" fill="#DCE2E6"/>
</svg>
