<svg width="114" height="68" viewBox="0 0 114 68" fill="none" xmlns="http://www.w3.org/2000/svg">
<path id="Union" fill-rule="evenodd" clip-rule="evenodd" d="M113.56 0H0V6.99464H113.56V0ZM113.56 60.8944H0V67.8891H113.56V60.8944ZM33.3275 21.3954V56.3687H22.2184L22.2184 21.3954H8.6406L0.411612 11.1092H58.426V21.3954H58.4257V56.3687H47.3165L47.3166 21.3954H33.3275ZM111.503 11.1092L105.331 21.6011C105.331 21.6011 81.0556 19.3382 81.0556 24.8927C81.0556 28.1407 86.3773 28.9562 91.5927 29.7554C95.2965 30.3229 98.9468 30.8823 100.599 32.2988C104.92 36.0019 105.621 46.2047 102.862 50.1969C98.9058 55.9216 88.8731 56.5743 88.8731 56.5743H58.4259V46.4938C58.4259 46.4938 92.3704 49.1682 92.3704 44.0251C92.3704 40.0615 82.9071 39.4992 82.9071 39.4992C82.9071 39.4992 68.0949 37.2362 68.0949 24.8927C68.0949 12.5493 85.3758 11.1092 85.3758 11.1092H111.503Z" fill="#EEC072"/>
</svg>
