<svg width="179" height="108" viewBox="0 0 179 108" fill="none" xmlns="http://www.w3.org/2000/svg">
<path id="Union" fill-rule="evenodd" clip-rule="evenodd" d="M179 0.5H0.0180664V11.5242H179V0.5ZM179 96.4758H0.0180664V107.5H179V96.4758ZM52.5454 34.2213L52.5454 89.3425L35.0363 89.3425L35.0363 34.2213H13.6364L0.666732 18.0091H92.1031V34.2213H92.1028V89.3425L74.5938 89.3425V34.2213H52.5454ZM175.758 18.0091L166.03 34.5455C166.03 34.5455 127.77 30.9788 127.77 39.7334C127.77 44.8525 136.157 46.1378 144.377 47.3974C150.215 48.2919 155.968 49.1735 158.573 51.4061C165.382 57.2425 166.488 73.3232 162.139 79.6152C155.903 88.6379 140.091 89.6667 140.091 89.6667L92.1029 89.6667V73.7789C92.1029 73.7789 145.603 77.994 145.603 69.8879C145.603 63.6408 130.688 62.7546 130.688 62.7546C130.688 62.7546 107.342 59.1879 107.342 39.7334C107.342 20.2788 134.579 18.0091 134.579 18.0091H175.758Z" fill="#EEC072"/>
</svg>
