<?xml version="1.0" encoding="utf-8"?>
<!-- Generator: Adobe Illustrator 27.2.0, SVG Export Plug-In . SVG Version: 6.00 Build 0)  -->
<svg version="1.1" id="Layer_1" xmlns="http://www.w3.org/2000/svg" xmlns:xlink="http://www.w3.org/1999/xlink" x="0px" y="0px"
	 viewBox="0 0 24 24" style="enable-background:new 0 0 24 24;" xml:space="preserve">
<style type="text/css">
	.st0{fill:#FFFFFF;}
</style>
<g id="Group_18">
	<g id="Group">
		<g id="Vector">
			<path class="st0" d="M16,21.8c-0.4,0-0.8-0.3-0.8-0.8V4c0-0.1-0.1-0.2-0.2-0.2H9C8.9,3.8,8.8,3.9,8.8,4v17c0,0.4-0.3,0.8-0.8,0.8
				S7.2,21.4,7.2,21V4C7.2,3,8,2.2,9,2.2h6c1,0,1.8,0.8,1.8,1.8v17C16.8,21.4,16.4,21.8,16,21.8z"/>
		</g>
		<g id="Vector_2">
			<path class="st0" d="M21,21.8c-0.4,0-0.8-0.3-0.8-0.8V7.9c0-0.1-0.1-0.2-0.2-0.2H16c-0.4,0-0.8-0.3-0.8-0.8s0.3-0.8,0.8-0.8h4.1
				c0.9,0,1.7,0.7,1.7,1.7V21C21.8,21.4,21.4,21.8,21,21.8z"/>
		</g>
		<g id="Vector_3">
			<path class="st0" d="M3,21.8c-0.4,0-0.8-0.3-0.8-0.8V7.9C2.2,7,3,6.2,3.9,6.2H8c0.4,0,0.8,0.3,0.8,0.8S8.4,7.8,8,7.8H3.9
				c-0.1,0-0.2,0.1-0.2,0.2V21C3.8,21.4,3.4,21.8,3,21.8z"/>
		</g>
		<g id="Vector_4">
			<path class="st0" d="M18.5,10.8H16c-0.4,0-0.8-0.3-0.8-0.8s0.3-0.8,0.8-0.8h2.5c0.4,0,0.8,0.3,0.8,0.8S18.9,10.8,18.5,10.8z"/>
		</g>
		<g id="Vector_5">
			<path class="st0" d="M18.5,13.8H16c-0.4,0-0.8-0.3-0.8-0.8s0.3-0.8,0.8-0.8h2.5c0.4,0,0.8,0.3,0.8,0.8S18.9,13.8,18.5,13.8z"/>
		</g>
		<g id="Vector_6">
			<path class="st0" d="M18.5,16.8H16c-0.4,0-0.8-0.3-0.8-0.8s0.3-0.8,0.8-0.8h2.5c0.4,0,0.8,0.3,0.8,0.8S18.9,16.8,18.5,16.8z"/>
		</g>
		<g id="Vector_7">
			<path class="st0" d="M8,10.8H5.5c-0.4,0-0.8-0.3-0.8-0.8s0.3-0.8,0.8-0.8H8c0.4,0,0.8,0.3,0.8,0.8S8.4,10.8,8,10.8z"/>
		</g>
		<g id="Vector_8">
			<path class="st0" d="M8,13.8H5.5c-0.4,0-0.8-0.3-0.8-0.8s0.3-0.8,0.8-0.8H8c0.4,0,0.8,0.3,0.8,0.8S8.4,13.8,8,13.8z"/>
		</g>
		<g id="Vector_9">
			<path class="st0" d="M8,16.8H5.5c-0.4,0-0.8-0.3-0.8-0.8s0.3-0.8,0.8-0.8H8c0.4,0,0.8,0.3,0.8,0.8S8.4,16.8,8,16.8z"/>
		</g>
		<g id="Vector_10">
			<path class="st0" d="M13.5,13.8h-3c-0.4,0-0.8-0.3-0.8-0.8s0.3-0.8,0.8-0.8h3c0.4,0,0.8,0.3,0.8,0.8S13.9,13.8,13.5,13.8z"/>
		</g>
		<g id="Vector_11">
			<path class="st0" d="M13.5,16.8h-3c-0.4,0-0.8-0.3-0.8-0.8s0.3-0.8,0.8-0.8h3c0.4,0,0.8,0.3,0.8,0.8S13.9,16.8,13.5,16.8z"/>
		</g>
		<g id="Vector_12">
			<path class="st0" d="M13.5,10.8h-3c-0.4,0-0.8-0.3-0.8-0.8s0.3-0.8,0.8-0.8h3c0.4,0,0.8,0.3,0.8,0.8S13.9,10.8,13.5,10.8z"/>
		</g>
		<g id="Vector_13">
			<path class="st0" d="M13.5,7.8h-3c-0.4,0-0.8-0.3-0.8-0.8s0.3-0.8,0.8-0.8h3c0.4,0,0.8,0.3,0.8,0.8S13.9,7.8,13.5,7.8z"/>
		</g>
		<g id="Vector_14">
			<path class="st0" d="M12,21.8c-0.4,0-0.8-0.3-0.8-0.8v-2c0-0.4,0.3-0.8,0.8-0.8s0.8,0.3,0.8,0.8v2C12.8,21.4,12.4,21.8,12,21.8z"
				/>
		</g>
		<g id="Vector_15">
			<path class="st0" d="M22,21.8H2c-0.4,0-0.8-0.3-0.8-0.8s0.3-0.8,0.8-0.8h20c0.4,0,0.8,0.3,0.8,0.8S22.4,21.8,22,21.8z"/>
		</g>
	</g>
</g>
</svg>
