<?xml version="1.0" encoding="utf-8"?>
<!-- Generator: Adobe Illustrator 27.2.0, SVG Export Plug-In . SVG Version: 6.00 Build 0)  -->
<svg version="1.1" id="Layer_1" xmlns="http://www.w3.org/2000/svg" xmlns:xlink="http://www.w3.org/1999/xlink" x="0px" y="0px"
	 viewBox="0 0 24 24" style="enable-background:new 0 0 24 24;" xml:space="preserve">
<style type="text/css">
	.st0{fill:#FFFFFF;}
</style>
<g id="Group_19">
	<g id="Vector">
		<path class="st0" d="M11.9,13.8C11.9,13.8,11.9,13.8,11.9,13.8c-0.9,0-1.6-0.3-2.3-0.8l-3.1-2.4c-0.3-0.3-0.4-0.7-0.1-1.1
			c0.3-0.3,0.7-0.4,1.1-0.1l3.1,2.4c0.4,0.3,0.9,0.5,1.3,0.5c0.5,0,1-0.1,1.4-0.4l3.3-2.4c0.3-0.2,0.8-0.2,1,0.2s0.2,0.8-0.2,1
			L14.1,13C13.5,13.5,12.7,13.8,11.9,13.8z"/>
	</g>
	<g id="Vector_2">
		<path class="st0" d="M16,21.2H8c-3.2,0-5.8-2.6-5.8-5.8v-7c0-3.2,2.6-5.8,5.8-5.8h8c3.2,0,5.8,2.6,5.8,5.8v7
			C21.8,18.7,19.2,21.2,16,21.2z M8,4.2c-2.3,0-4.2,1.9-4.2,4.2v7c0,2.3,1.9,4.2,4.2,4.2h8c2.3,0,4.2-1.9,4.2-4.2v-7
			c0-2.3-1.9-4.2-4.2-4.2H8z"/>
	</g>
</g>
</svg>
