<?xml version="1.0" encoding="utf-8"?>
<!-- Generator: Adobe Illustrator 27.2.0, SVG Export Plug-In . SVG Version: 6.00 Build 0)  -->
<svg version="1.1" id="Layer_1" xmlns="http://www.w3.org/2000/svg" xmlns:xlink="http://www.w3.org/1999/xlink" x="0px" y="0px"
	 viewBox="0 0 24 24" style="enable-background:new 0 0 24 24;" xml:space="preserve">
<style type="text/css">
	.st0{fill:#323232;}
</style>
<g id="Group_144">
	<g id="Group">
		<g id="Vector">
			<path class="st0" d="M18.5,12.8h-13c-0.4,0-0.8-0.3-0.8-0.8s0.3-0.8,0.8-0.8h13c0.4,0,0.8,0.3,0.8,0.8S18.9,12.8,18.5,12.8z"/>
		</g>
		<g id="Vector_2">
			<path class="st0" d="M18.5,16.8h-13c-0.4,0-0.8-0.3-0.8-0.8s0.3-0.8,0.8-0.8h13c0.4,0,0.8,0.3,0.8,0.8S18.9,16.8,18.5,16.8z"/>
		</g>
		<g id="Vector_3">
			<path class="st0" d="M18.5,8.8h-13C5.1,8.8,4.8,8.4,4.8,8s0.3-0.8,0.8-0.8h13c0.4,0,0.8,0.3,0.8,0.8S18.9,8.8,18.5,8.8z"/>
		</g>
	</g>
</g>
</svg>
