<svg width="65" height="67" viewBox="0 0 65 67" fill="none" xmlns="http://www.w3.org/2000/svg">
<rect x="0.547852" width="64.4521" height="66.3571" rx="17.0037" fill="url(#paint0_linear_41_6119)"/>
<path fill-rule="evenodd" clip-rule="evenodd" d="M25.2464 18.704H29.7806H35.6753H40.2096L49.2782 32.307L40.2096 45.9099H29.7807L38.8493 32.307L33.7104 24.5987L26.6067 45.9099H16.1777L25.2464 18.704Z" fill="white"/>
<path fill-rule="evenodd" clip-rule="evenodd" d="M40.5286 47.5431C40.203 47.713 39.8093 47.6831 39.5131 47.4659C39.217 47.2488 39.0701 46.8822 39.1343 46.5207L39.6539 43.5427L37.4665 41.4466C37.1991 41.1916 37.1011 40.8062 37.2143 40.4545C37.3274 40.1027 37.6317 39.8467 37.9976 39.7954L41.0346 39.3613L42.4057 36.6261C42.5683 36.2981 42.9028 36.0906 43.2689 36.0906C43.635 36.0906 43.9694 36.2981 44.132 36.6261L45.5031 39.3613L48.5402 39.7954C48.906 39.8467 49.2104 40.1027 49.3235 40.4545C49.4366 40.8062 49.3386 41.1916 49.0713 41.4466L46.8839 43.5427L47.4034 46.5213C47.4676 46.8829 47.3207 47.2494 47.0246 47.4666C46.7285 47.6837 46.3347 47.7136 46.0092 47.5437L43.2689 46.1277L40.5286 47.5431Z" fill="url(#paint1_linear_41_6119)" stroke="white" stroke-width="1.70037" stroke-linecap="round" stroke-linejoin="round"/>
<defs>
<linearGradient id="paint0_linear_41_6119" x1="32.7739" y1="0" x2="32.7739" y2="66.3571" gradientUnits="userSpaceOnUse">
<stop stop-color="#FFD600"/>
<stop offset="1" stop-color="#FFC700"/>
</linearGradient>
<linearGradient id="paint1_linear_41_6119" x1="43.2689" y1="36.0906" x2="43.2689" y2="47.6531" gradientUnits="userSpaceOnUse">
<stop stop-color="#FFF279"/>
<stop offset="1" stop-color="#FFD600"/>
</linearGradient>
</defs>
</svg>
