<?xml version="1.0" encoding="utf-8"?>
<!-- Generator: Adobe Illustrator 27.2.0, SVG Export Plug-In . SVG Version: 6.00 Build 0)  -->
<svg version="1.1" id="Layer_1" xmlns="http://www.w3.org/2000/svg" xmlns:xlink="http://www.w3.org/1999/xlink" x="0px" y="0px"
	 viewBox="0 0 21 20" style="enable-background:new 0 0 21 20;" xml:space="preserve">
<style type="text/css">
	.st0{fill:#FFFFFF;}
</style>
<g id="Group_23">
	<g id="Group">
		<g id="Vector">
			<path class="st0" d="M10.5,11.6c-1.8,0-3.2-1.5-3.2-3.3s1.5-3.2,3.2-3.2s3.2,1.5,3.2,3.2S12.3,11.6,10.5,11.6z M10.5,6.6
				c-1,0-1.8,0.8-1.8,1.8s0.8,1.8,1.8,1.8s1.8-0.8,1.8-1.8S11.5,6.6,10.5,6.6z"/>
		</g>
		<g id="Vector_2">
			<path class="st0" d="M10.5,18.2c-0.2,0-0.3-0.1-0.5-0.2s-6.1-5-6.1-9.7c0-3.6,3-6.6,6.6-6.6s6.6,3,6.6,6.6c0,4.7-5.9,9.5-6.1,9.7
				C10.9,18.2,10.7,18.2,10.5,18.2z M10.5,3.2c-2.8,0-5.1,2.3-5.1,5.1c0,3.3,3.7,6.9,5.1,8.2c1.3-1.2,5.1-4.9,5.1-8.2
				C15.6,5.5,13.3,3.2,10.5,3.2z"/>
		</g>
	</g>
</g>
</svg>
