<?xml version="1.0" encoding="utf-8"?>
<!-- Generator: Adobe Illustrator 27.2.0, SVG Export Plug-In . SVG Version: 6.00 Build 0)  -->
<svg version="1.1" id="Layer_1" xmlns="http://www.w3.org/2000/svg" xmlns:xlink="http://www.w3.org/1999/xlink" x="0px" y="0px"
	 viewBox="0 0 25 24" style="enable-background:new 0 0 25 24;" xml:space="preserve">
<style type="text/css">
	.st0{fill:#FFFFFF;}
</style>
<g id="Group_24">
	<g id="Vector">
		<path class="st0" d="M10.8,20.7c-0.1,0-0.3,0-0.4-0.1c-0.2-0.1-0.4-0.4-0.4-0.7v-3.7c-3.4-0.2-6.1-3-6.2-6.4c0,0,0-0.1,0-0.1
			c0-3.6,2.9-6.5,6.5-6.5h3.8c0,0,0,0,0,0c1.9,0,3.7,0.7,5,2.1c1.4,1.4,2.1,3.2,2.1,5.1c0,2.5-1.3,4.8-3.4,6.1l-6.7,4.1
			C11.1,20.7,11,20.7,10.8,20.7z M11.6,15.8v2.8l5.6-3.4c1.7-1,2.7-2.8,2.7-4.8c0-1.5-0.6-2.9-1.7-4c-1.1-1.1-2.5-1.6-4-1.6
			c0,0,0,0,0,0h-3.8c-2.7,0-5,2.2-5,4.9c0,0,0,0.1,0,0.1c0,2.8,2.3,5,5,5h0.2c0.2-0.1,0.4,0,0.6,0.1c0.3,0.1,0.4,0.4,0.4,0.7
			C11.6,15.7,11.6,15.8,11.6,15.8z"/>
	</g>
</g>
</svg>
