<?xml version="1.0" encoding="utf-8"?>
<!-- Generator: Adobe Illustrator 27.2.0, SVG Export Plug-In . SVG Version: 6.00 Build 0)  -->
<svg version="1.1" id="Layer_1" xmlns="http://www.w3.org/2000/svg" xmlns:xlink="http://www.w3.org/1999/xlink" x="0px" y="0px"
	 viewBox="0 0 24 24" style="enable-background:new 0 0 24 24;" xml:space="preserve">
<style type="text/css">
	.st0{fill:#FFFFFF;}
</style>
<g id="Group_16">
	<g id="Vector">
		<path class="st0" d="M16.8,21c-0.3,0-0.5,0-0.8-0.1c-2.9-0.5-5.9-2.2-8.3-4.7C5.3,13.8,3.6,10.9,3,8C2.8,6.7,3.2,5.3,4.1,4.4
			l0.7-0.7c1.1-1.1,2.8-1.1,3.9,0L9.8,5c0.9,0.9,0.9,2.3-0.1,3.3L8.9,9c0.6,1.3,1.4,2.5,2.5,3.6l0,0c1.1,1.1,2.3,1.9,3.6,2.5
			l0.9-0.9c0.8-0.8,2.3-0.8,3.2,0l1.2,1.2c1.1,1.1,1.1,2.8,0,3.9l-0.7,0.7C18.8,20.6,17.8,21,16.8,21z M6.7,4.5
			c-0.3,0-0.6,0.1-0.9,0.4L5.2,5.5C4.6,6,4.4,6.9,4.5,7.7c0.5,2.6,2,5.3,4.3,7.5s4.9,3.8,7.5,4.3c0.8,0.2,1.6-0.1,2.2-0.6l0.7-0.7
			c0.5-0.5,0.5-1.3,0-1.8L18,15.2c-0.3-0.3-0.8-0.3-1.1,0L16,16.1c-0.4,0.4-1.1,0.6-1.7,0.3c-1.5-0.6-2.9-1.6-4-2.8l0,0
			c-1.2-1.2-2.2-2.6-2.8-4C7.3,9.1,7.4,8.4,7.9,8l0.8-0.8C9,6.8,9.1,6.3,8.8,6L7.6,4.8C7.3,4.6,7,4.5,6.7,4.5z"/>
	</g>
</g>
</svg>
