<?xml version="1.0" encoding="utf-8"?>
<!-- Generator: Adobe Illustrator 27.2.0, SVG Export Plug-In . SVG Version: 6.00 Build 0)  -->
<svg version="1.1" id="Layer_1" xmlns="http://www.w3.org/2000/svg" xmlns:xlink="http://www.w3.org/1999/xlink" x="0px" y="0px"
	 viewBox="0 0 24 24" style="enable-background:new 0 0 24 24;" xml:space="preserve">
<style type="text/css">
	.st0{fill:#D7AD64;}
	.st1{fill:#151515;}
</style>
<g id="Group_29">
	<g id="Group">
		<g id="Vector">
			<path class="st0" d="M4,15.7V5c0-1.1,0.9-2,2-2h12c1.1,0,2,0.9,2,2v10.7c0,0.7-0.4,1.4-1,1.7l-6,3.3c-0.6,0.3-1.3,0.3-1.9,0
				l-6-3.3C4.4,17.1,4,16.4,4,15.7z"/>
			<path class="st0" d="M12,21.8c-0.5,0-0.9-0.1-1.3-0.3l-6-3.3c-0.9-0.5-1.4-1.4-1.4-2.4V5c0-1.5,1.2-2.8,2.8-2.8h12
				c1.5,0,2.8,1.2,2.8,2.8v10.7c0,1-0.5,1.9-1.4,2.4l-6,3.3C12.9,21.6,12.5,21.8,12,21.8z M6,3.8C5.3,3.8,4.8,4.3,4.8,5v10.7
				c0,0.5,0.2,0.9,0.6,1.1l6,3.3c0.4,0.2,0.8,0.2,1.2,0l6-3.3c0.4-0.2,0.6-0.6,0.6-1.1V5c0-0.7-0.6-1.2-1.2-1.2H6z"/>
		</g>
		<g id="Vector_2">
			<path class="st1" d="M13.6,14.8c-0.2,0-0.5-0.1-0.7-0.2L12,14.1l-0.9,0.4c0,0,0,0,0,0c-0.5,0.3-1.1,0.2-1.6-0.1l-0.3-0.2
				c-0.5-0.3-0.7-0.9-0.6-1.5l0.2-0.9l-0.7-0.7c-0.4-0.4-0.6-1-0.4-1.6l0.1-0.4C8,8.6,8.5,8.2,9,8.1L10,8l0.4-0.9
				c0.3-0.5,0.8-0.9,1.4-0.9h0.4c0.6,0,1.1,0.3,1.4,0.9L14,8l1,0.2c0.6,0.1,1.1,0.5,1.2,1l0.1,0.4c0.2,0.6,0,1.2-0.4,1.6l-0.7,0.7
				l0.1,1c0.1,0.6-0.1,1.2-0.6,1.5l-0.3,0.2C14.2,14.7,13.9,14.8,13.6,14.8z M11.8,7.8l-0.5,0.9c-0.2,0.5-0.7,0.8-1.2,0.8L9.3,9.6
				L9.1,10l0.7,0.7c0.4,0.4,0.5,0.9,0.4,1.4L10.1,13l0.3,0.3l0.4,0.7l-0.3-0.7l0.8-0.4c0.5-0.2,1-0.2,1.4,0l0.8,0.4l0.4-0.2l-0.1-1
				c-0.1-0.5,0.1-1,0.4-1.4l0.7-0.7l-0.1-0.4l-1-0.2c-0.5-0.1-0.9-0.4-1.2-0.8l-0.4-0.8L11.8,7.8z"/>
		</g>
	</g>
</g>
</svg>
