<svg width="38" height="40" viewBox="0 0 38 40" fill="none" xmlns="http://www.w3.org/2000/svg">
<rect width="37.9048" height="39.0252" transform="translate(0 0.487305)" fill="url(#paint0_linear_53_1567)"/>
<path fill-rule="evenodd" clip-rule="evenodd" d="M14.5252 11.4873H17.1919H20.6586H23.3252L28.6585 19.4873L23.3252 27.4873H17.1919L22.5252 19.4873L19.503 14.954L15.3252 27.4873H9.19189L14.5252 11.4873Z" fill="white"/>
<path fill-rule="evenodd" clip-rule="evenodd" d="M23.513 28.4478C23.3216 28.5477 23.09 28.5301 22.9158 28.4024C22.7417 28.2747 22.6553 28.0591 22.693 27.8465L22.9986 26.0951L21.7122 24.8624C21.5549 24.7124 21.4973 24.4857 21.5639 24.2789C21.6304 24.0721 21.8094 23.9215 22.0245 23.8913L23.8106 23.636L24.617 22.0274C24.7126 21.8345 24.9093 21.7125 25.1246 21.7125C25.3399 21.7125 25.5366 21.8345 25.6322 22.0274L26.4386 23.636L28.2247 23.8913C28.4399 23.9215 28.6188 24.0721 28.6854 24.2789C28.7519 24.4857 28.6943 24.7124 28.537 24.8624L27.2506 26.0951L27.5562 27.8469C27.5939 28.0595 27.5075 28.2751 27.3334 28.4028C27.1593 28.5305 26.9277 28.5481 26.7362 28.4482L25.1246 27.6154L23.513 28.4478Z" fill="url(#paint1_linear_53_1567)" stroke="white" stroke-linecap="round" stroke-linejoin="round"/>
<defs>
<linearGradient id="paint0_linear_53_1567" x1="18.9524" y1="0" x2="18.9524" y2="39.0252" gradientUnits="userSpaceOnUse">
<stop stop-color="#FFD600"/>
<stop offset="1" stop-color="#FFC700"/>
</linearGradient>
<linearGradient id="paint1_linear_53_1567" x1="25.1246" y1="21.7125" x2="25.1246" y2="28.5125" gradientUnits="userSpaceOnUse">
<stop stop-color="#FFF279"/>
<stop offset="1" stop-color="#FFD600"/>
</linearGradient>
</defs>
</svg>
